<svg id="Layer_1" data-name="Layer 1" xmlns="http://www.w3.org/2000/svg" viewBox="0 0 23.03244 20.16268"><title>acceleration</title><g id="Layer_2" data-name="Layer 2"><g id="Layer_1-2" data-name="Layer 1-2"><path d="M4.8,7.7a9.33868,9.33868,0,0,0-2,4.8H4.6a.90554.90554,0,0,1,.2,1.8h-2a9.66884,9.66884,0,0,0,2,4.9l1.4-1.4a1.08958,1.08958,0,0,1,1.1-.2,1.05018,1.05018,0,0,1,.5.9.54993.54993,0,0,1-.3.5,19.39807,19.39807,0,0,1-2.3,2.6,1.38043,1.38043,0,0,1-.4.3.49408.49408,0,0,1-.7-.1A11.17576,11.17576,0,0,1,.5,12.7,11.4978,11.4978,0,0,1,23.2,11a11.36043,11.36043,0,0,1-3.3,10.9.63282.63282,0,0,1-.9.1c-.1,0-.1-.1-.2-.2-.7-.7-1.4-1.5-2.1-2.2l-.4-.4a1.05139,1.05139,0,0,1,0-1.3.85265.85265,0,0,1,1.3,0h0L19,19.3a9.30174,9.30174,0,0,0,2.1-5.1H19.2a.9.9,0,0,1,0-1.8h1.9A9.00015,9.00015,0,0,0,19,7.5L17.7,8.8a.85417.85417,0,0,1-1.3,0,.792.792,0,0,1-.1-1.1c.1-.1.2-.2.2-.3a11.98549,11.98549,0,0,0,1.1-1.2,9.70278,9.70278,0,0,0-4.8-2V6a.89626.89626,0,0,1-.9.9.76544.76544,0,0,1-.9-.8h0V4.3A9.30535,9.30535,0,0,0,6,6.4,15.93359,15.93359,0,0,1,7.3,7.7.936.936,0,0,1,7.3,9a.77772.77772,0,0,1-.8.2A.76385.76385,0,0,1,6,9,15.37972,15.37972,0,0,1,4.8,7.7Z" transform="translate(-0.45987 -1.97671)"/><path d="M16,9.4a1.07215,1.07215,0,0,1-.2.6c-.6,1.3-1.2,2.7-1.8,4a2.092,2.092,0,0,1-.4.6,2.01673,2.01673,0,0,1-2.1.9,2.17043,2.17043,0,0,1-1.6-1.6,1.95148,1.95148,0,0,1,.9-2.1c1.1-.6,2.3-1.1,3.5-1.7A12.19879,12.19879,0,0,0,16,9.4Zm-4,4.8a.8.8,0,1,0-.8-.8A.78874.78874,0,0,0,12,14.2Z" transform="translate(-0.45987 -1.97671)"/></g></g></svg>