<?xml version="1.0" encoding="utf-8"?>
<!-- Generator: Adobe Illustrator 21.0.0, SVG Export Plug-In . SVG Version: 6.00 Build 0)  -->
<svg version="1.1" id="Layer_1" xmlns="http://www.w3.org/2000/svg" xmlns:xlink="http://www.w3.org/1999/xlink" x="0px" y="0px"
	 width="400px" height="400px" viewBox="0 0 400 400" style="enable-background:new 0 0 400 400;" xml:space="preserve">
<g id="Layer_2">
	<g>
		<polygon style="fill-rule:evenodd;clip-rule:evenodd;fill:#1A2A3A;" points="271.27527,276.57019 252.85916,259.7128 
			247.65346,260.44598 271.94122,280.82376 		"/>
		
			<rect x="271.27527" y="253.21689" style="fill-rule:evenodd;clip-rule:evenodd;fill:#1A2A3A;" width="6.49553" height="33.10073"/>
		<path style="fill-rule:evenodd;clip-rule:evenodd;fill:#85BFE9;" d="M247.02565,236.67085l130.4821-2.82574
			c10.56708-0.75244,10.32333,8.01611,2.95233,9.43253l-134.87405,18.21642L247.02565,236.67085z"/>
		<polygon style="fill-rule:evenodd;clip-rule:evenodd;fill:#1A2A3A;" points="128.72514,276.57019 147.14085,259.7128 
			152.34656,260.44598 128.05879,280.82376 		"/>
		
			<rect x="122.22922" y="253.21689" style="fill-rule:evenodd;clip-rule:evenodd;fill:#1A2A3A;" width="6.49592" height="33.10073"/>
		<path style="fill-rule:evenodd;clip-rule:evenodd;fill:#AAD3EF;" d="M152.97437,236.67085l-130.48212-2.82574
			c-10.56707-0.75244-10.32334,8.01611-2.95233,9.43253l134.87405,18.21642L152.97437,236.67085z"/>
		<path style="fill-rule:evenodd;clip-rule:evenodd;fill:#5492BF;" d="M192.2923,179.67195l5.74702-82.2903
			c0.21111-1.22064,0.76579-2.11538,1.96167-2.40707v85.17343L192.2923,179.67195z"/>
		<path style="fill-rule:evenodd;clip-rule:evenodd;fill:#5492BF;" d="M159.8638,212.39645l-94.61973-11.79361
			c-2.95037-0.34555-3.27862,3.36276-0.88688,4.01927l93.73679,20.10889l5.18053-2.63351L159.8638,212.39645z"/>
		<path style="fill-rule:evenodd;clip-rule:evenodd;fill:#5492BF;" d="M200.00099,274.44696
			c-17.86299,0.81415-33.10426-1.35117-41.71124-11.05652h-5.31538v-27.84077c2.63745,0.55273,4.58182-0.18437,5.44943-2.93307
			L200.00099,274.44696z"/>
		<rect x="123.18725" y="286.31763" style="fill-rule:evenodd;clip-rule:evenodd;fill:#1A2A3A;" width="4.57789" height="3.32069"/>
		<rect x="124.07374" y="289.63831" style="fill-rule:evenodd;clip-rule:evenodd;fill:#1A2A3A;" width="2.80452" height="2.97907"/>
		<rect x="121.01015" y="292.11456" style="fill-rule:evenodd;clip-rule:evenodd;fill:#1A2A3A;" width="9.52295" height="8.8912"/>
		<path style="fill-rule:evenodd;clip-rule:evenodd;fill:#1A2A3A;" d="M117.6875,287.24261h0.29562
			c1.66644,0,3.02545,1.36298,3.02545,3.02509v11.73227c0,1.66644-1.35902,3.02545-3.02545,3.02545h-0.29562
			c-1.66408,0-3.02506-1.35901-3.02506-3.02545V290.2677C114.66244,288.60559,116.02342,287.24261,117.6875,287.24261z"/>
		<path style="fill-rule:evenodd;clip-rule:evenodd;fill:#1A2A3A;" d="M133.55815,287.24261h0.29564
			c1.66643,0,3.02742,1.36298,3.02742,3.02509v11.73227c0,1.66644-1.36099,3.02545-3.02742,3.02545h-0.29564
			c-1.66408,0-3.02505-1.35901-3.02505-3.02545V290.2677C130.5331,288.60559,131.89407,287.24261,133.55815,287.24261z"/>
		<ellipse style="fill-rule:evenodd;clip-rule:evenodd;fill:#5492BF;" cx="69.7052" cy="266.94278" rx="22.58712" ry="23.66211"/>
		<ellipse style="fill-rule:evenodd;clip-rule:evenodd;fill:#1A2A3A;" cx="69.7051" cy="266.94278" rx="16.97828" ry="17.78456"/>
		<ellipse style="fill-rule:evenodd;clip-rule:evenodd;fill:#D0E6F5;" cx="200.0005" cy="226.35135" rx="41.92923" ry="48.09571"/>
		<path style="fill-rule:evenodd;clip-rule:evenodd;fill:#67A4CF;" d="M200.00099,211.73602
			c-8.36128-0.9828-20.99577,7.22514-25.7659,6.72981c-3.9426-0.38014-4.51852-4.49571-3.83723-6.10791l3.28845-6.34221
			c3.42801-5.74309,21.70219-6.47665,26.31468-6.30368V211.73602z"/>
		<path style="fill-rule:evenodd;clip-rule:evenodd;fill:#4681AB;" d="M207.70811,179.67195l-5.74742-82.2903
			c-0.21111-1.22064-0.76579-2.11538-1.9597-2.40707v85.17343L207.70811,179.67195z"/>
		<path style="fill-rule:evenodd;clip-rule:evenodd;fill:#4681AB;" d="M240.1366,212.39645l94.61935-11.79361
			c2.94839-0.34555,3.27859,3.36276,0.88687,4.01927L241.90446,224.731l-5.17897-2.63351L240.1366,212.39645z"/>
		<path style="fill-rule:evenodd;clip-rule:evenodd;fill:#4681AB;" d="M200.00099,274.44696
			c17.86142,0.81415,33.10229-1.35117,41.7077-11.05652h5.31499v-27.84077c-2.63548,0.55273-4.58182-0.18437-5.44748-2.93307
			L200.00099,274.44696z"/>
		<rect x="272.23486" y="286.31763" style="fill-rule:evenodd;clip-rule:evenodd;fill:#1A2A3A;" width="4.57631" height="3.32069"/>
		<rect x="273.12177" y="289.63831" style="fill-rule:evenodd;clip-rule:evenodd;fill:#1A2A3A;" width="2.80452" height="2.97907"/>
		<rect x="269.46692" y="292.11456" style="fill-rule:evenodd;clip-rule:evenodd;fill:#1A2A3A;" width="9.52295" height="8.8912"/>
		<path style="fill-rule:evenodd;clip-rule:evenodd;fill:#1A2A3A;" d="M282.3125,287.24261h-0.29562
			c-1.66605,0-3.02701,1.36298-3.02701,3.02509v11.73227c0,1.66644,1.36096,3.02545,3.02701,3.02545h0.29562
			c1.66409,0,3.02509-1.35901,3.02509-3.02545V290.2677C285.33759,288.60559,283.97659,287.24261,282.3125,287.24261z"/>
		<path style="fill-rule:evenodd;clip-rule:evenodd;fill:#1A2A3A;" d="M266.44186,287.24261h-0.29562
			c-1.66409,0-3.02704,1.36298-3.02704,3.02509v11.73227c0,1.66644,1.36295,3.02545,3.02704,3.02545h0.29562
			c1.66406,0,3.02505-1.35901,3.02505-3.02545V290.2677C269.46692,288.60559,268.10593,287.24261,266.44186,287.24261z"/>
		<ellipse style="fill-rule:evenodd;clip-rule:evenodd;fill:#4681AB;" cx="330.2952" cy="266.94278" rx="22.58908" ry="23.66211"/>
		<ellipse style="fill-rule:evenodd;clip-rule:evenodd;fill:#1A2A3A;" cx="330.2951" cy="266.94278" rx="16.97827" ry="17.78456"/>
		<path style="fill-rule:evenodd;clip-rule:evenodd;fill:#AAD3EF;" d="M200.00099,274.44696
			c23.15517,0,41.92824-21.53317,41.92824-48.09552c0-26.56274-18.77307-48.0959-41.92824-48.0959V274.44696z"/>
		<path style="fill-rule:evenodd;clip-rule:evenodd;fill:#4681AB;" d="M200.00099,211.73602
			c8.3597-0.9828,20.9938,7.22514,25.76195,6.72981c3.94496-0.38014,4.52049-4.49571,3.83922-6.10791l-3.28806-6.34221
			c-3.42841-5.74309-21.70221-6.47665-26.31311-6.30368V211.73602z"/>
		<ellipse style="fill-rule:evenodd;clip-rule:evenodd;fill:#85BFE9;" cx="200.0006" cy="232.49857" rx="16.57041" ry="17.12805"/>
		<path style="fill-rule:evenodd;clip-rule:evenodd;fill:#E4EEF5;" d="M199.99902,215.3716
			c-9.15027,0-16.56923,7.67056-16.56923,17.12589c0,9.45966,7.41896,17.13022,16.56923,17.13022V215.3716z"/>
	</g>
</g>
</svg>
