<svg id="Layer_1" data-name="Layer 1" xmlns="http://www.w3.org/2000/svg" viewBox="0 0 107.06899 143.49001"><title>amt_of_substance</title><g id="Layer_2" data-name="Layer 2"><g id="Layer_1-2" data-name="Layer 1-2"><path d="M106,137,71.86,71.16V6.3h1.87a3.15,3.15,0,0,0,0-6.3H33.56a3.15,3.15,0,0,0-.00019,6.3H35.7V71.16L1.08,137a3.83,3.83,0,0,0,2.76,6.49h99.44A3.83,3.83,0,0,0,106,137Zm-6,.48a1.66,1.66,0,0,1-1.55,1H8.65a1.69,1.69,0,0,1-1.21-2.86l.12-.12L29.37,95.12H77.78l21.79,40.44.12.12a1.66,1.66,0,0,1,.31,1.83Z" transform="translate(-0.00558 0)"/></g></g></svg>