<svg id="Layer_1" data-name="Layer 1" xmlns="http://www.w3.org/2000/svg" viewBox="0 0 23 23"><title>back</title><g id="Layer_2" data-name="Layer 2"><g id="Layer_1-2" data-name="Layer 1-2"><path d="M12,23.5A11.43819,11.43819,0,0,1,.5,12,11.43819,11.43819,0,0,1,12,.5,11.43819,11.43819,0,0,1,23.5,12,11.56629,11.56629,0,0,1,12,23.5Zm0-21A9.56045,9.56045,0,0,0,2.5,12,9.56045,9.56045,0,0,0,12,21.5,9.56045,9.56045,0,0,0,21.5,12,9.56045,9.56045,0,0,0,12,2.5Z" transform="translate(-0.5 -0.5)"/><path d="M18,11H8.4l2.3-2.3A.90783.90783,0,0,0,11,8a1.07539,1.07539,0,0,0-1-1,.90783.90783,0,0,0-.7.3l-4,4a.96667.96667,0,0,0,0,1.4l4,4a.90783.90783,0,0,0,.7.3,1.07539,1.07539,0,0,0,1-1,.90783.90783,0,0,0-.3-.7L8.4,13H18a1,1,0,0,0,0-2Z" transform="translate(-0.5 -0.5)"/></g></g></svg>