<svg id="Layer_1" data-name="Layer 1" xmlns="http://www.w3.org/2000/svg" viewBox="0 0 53.20308 40.00114"><title>biology</title><g id="_Group_" data-name=" Group "><circle id="_Path_" data-name=" Path " cx="12.68177" cy="22.70424" r="5.01177"/><circle id="_Path_2" data-name=" Path 2" cx="29.74312" cy="25.61949" r="5.01177"/><path id="_Path_3" data-name=" Path 3" d="M44.02691,3.38922a3.38442,3.38442,0,1,0-6.76883-.01189q0,.00594,0,.01189a3.339,3.339,0,0,0,2.38078,3.23636V9.36485a5.12239,5.12239,0,0,1,1.99058.00006V6.62558A3.35371,3.35371,0,0,0,44.02691,3.38922Z" transform="translate(0 0.00114)"/><circle id="_Path_4" data-name=" Path 4" cx="33.37567" cy="10.92617" r="3.38922"/><circle id="_Path_5" data-name=" Path 5" cx="49.81387" cy="19.17291" r="3.38921"/><path id="_Path_6" data-name=" Path 6" d="M12.02686,11.8272a4.10322,4.10322,0,1,0-3.57152,4.0616l.96278,2.25512a5.27211,5.27211,0,0,1,1.9929-.89909l-.94121-2.20461A4.08776,4.08776,0,0,0,12.02686,11.8272Z" transform="translate(0 0.00114)"/><g id="_Group_2" data-name=" Group 2"><path id="_Path_7" data-name=" Path 7" d="M24.73134,23.4875l-6.6275-1.23761c.01219.14956.01981.30046.01981.45327a5.47948,5.47948,0,0,1-.40461,2.07447l6.59863,1.23223c-.00909-.12944-.0153-.25966-.0153-.39147A5.47576,5.47576,0,0,1,24.73134,23.4875Z" transform="translate(0 0.00114)"/></g><g id="_Group_3" data-name=" Group 3"><path id="_Path_8" data-name=" Path 8" d="M37.17841,23.49771a3.375,3.375,0,0,0-2.17283.78865,5.1353,5.1353,0,0,1-.76327,4.29273,3.389,3.389,0,1,0,2.9361-5.08138Z" transform="translate(0 0.00114)"/></g><path id="_Path_9" data-name=" Path 9" d="M45.57795,15.64411a5.01026,5.01026,0,0,0-8.387-4.55824,3.67033,3.67033,0,0,1-1.50052,2.94124A5.01088,5.01088,0,0,0,44.78,17.55142l1.31286.66823a3.5323,3.5323,0,0,1,1.04229-1.78293Z" transform="translate(0 0.00114)"/><path id="_Path_10" data-name=" Path 10" d="M37.7382,19.35655a5.33541,5.33541,0,0,1-1.7906-1.82887l-3.71176,3.74348a5.01143,5.01143,0,1,0-3.8975,9.15791l-.13309,2.44983a3.66,3.66,0,0,1,2.09882.16259l.13364-2.46041a5.01071,5.01071,0,0,0,3.61983-7.51243Z" transform="translate(0 0.00114)"/><circle id="_Path_11" data-name=" Path 11" cx="28.98363" cy="36.61192" r="3.38922"/><g id="_Group_4" data-name=" Group 4"><path id="_Path_12" data-name=" Path 12" d="M12.68176,17.69134a5.01067,5.01067,0,0,0-4.20288,7.74048l-1.94582,1.81a4.62983,4.62983,0,0,1,1.76979,1.663l1.95261-1.81637a5.0118,5.0118,0,1,0,2.42631-9.39714Z" transform="translate(0 0.00114)"/><circle id="_Path_13" data-name=" Path 13" cx="4.24098" cy="31.44646" r="4.24098"/></g></g></svg>