<svg id="Layer_1" data-name="Layer 1" xmlns="http://www.w3.org/2000/svg" viewBox="0 0 372 372"><title>black</title><g id="Layer_2" data-name="Layer 2"><g id="Layer_1-2" data-name="Layer 1-2"><path d="M171.44348,245.84348v-45.287h-45.287v17.79129c0,1.6174,0,4.85217-3.23477,4.85217-1.6174,1.6174-4.85217,0-4.85217-1.6174-8.087-6.46957-14.55652-12.93912-22.64349-21.02609-4.85217-3.23477-8.087-8.087-12.93912-11.32175-1.6174-1.6174-3.23477-4.85217-1.6174-6.46957l1.6174-1.6174c11.32175-11.32175,22.64349-21.02609,35.58261-32.34784h6.46957c1.6174,1.6174,1.6174,3.2348,1.6174,4.8522v17.79132h45.287v-45.287H152.03479c-1.6174,0-3.23477-1.6174-4.85217-3.23477,1.61737-1.6174,1.61737-3.2348,3.23477-4.85217s1.61737-3.2348,3.23477-4.85217c9.70435-9.70435,17.79132-21.02609,27.49564-30.73044,3.23477-3.23477,6.46957-3.23477,8.087,0,11.32175,11.32175,21.02609,24.26086,32.34784,35.58261,1.61737,1.6174,1.61737,3.23477,1.61737,4.85217s-1.61737,3.23477-4.85217,3.23477H198.93912v45.287h45.287V153.65216c0-1.6174,1.61737-3.23477,3.2348-4.85217,1.61737,0,3.2348,0,4.85217,1.6174,11.32178,11.32175,24.26086,21.02609,35.58264,32.34784,1.61737,1.6174,3.2348,4.85217,1.61737,6.46957l-1.61737,1.6174C276.57391,202.17392,265.2522,211.87827,252.313,223.2c-1.61737,1.6174-3.2348,1.6174-4.85217,1.6174-1.61737-1.6174-3.2348-3.23477-3.2348-4.85217V202.17392H198.939v45.287h17.79132c1.6174,0,3.2348,1.6174,4.85217,3.23477s0,3.2348-1.61737,4.85217c-11.32175,11.32175-21.02609,24.26086-32.34784,35.58261-1.6174,1.6174-4.85217,3.2348-6.46957,1.6174l-1.6174-1.6174c-11.32175-11.32175-21.02609-24.26086-32.34784-35.58261-1.6174-1.6174-1.6174-3.2348-1.6174-4.85217s3.23477-3.23477,4.85217-3.23477h16.17392C169.82608,245.84348,171.44348,245.84348,171.44348,245.84348Z"/><path d="M186,372C82.487,372,0,289.513,0,186S82.487,0,186,0,372,82.487,372,186C372,287.89563,287.89563,372,186,372Zm0-339.65216C101.89566,32.34784,32.34784,101.89566,32.34784,186S101.89566,339.65216,186,339.65216,339.65216,270.10437,339.65216,186,270.10437,32.34782,186,32.34782Z"/></g></g></svg>