<svg id="Layer_1" data-name="Layer 1" xmlns="http://www.w3.org/2000/svg" viewBox="0 0 12.73607 23.04487"><title>capacity</title><g id="Layer_2" data-name="Layer 2"><g id="Layer_1-2" data-name="Layer 1-2"><path d="M15.8,19.2l.5.3c.3.7-1.9,3.5-3.1,3.8-2.1.7-4.1-.1-5.2-3.8L6,20.6l-.4-.7a.30971.30971,0,0,0,.1-.2c1.6-.6,2.1-1.7,2.1-3.6A20.69413,20.69413,0,0,1,13.1,2.3,6.33156,6.33156,0,0,1,15.5.7a1.89242,1.89242,0,0,1,2.6.9,2.91985,2.91985,0,0,1,.2.9,16.00092,16.00092,0,0,1-.4,4.9,18.80647,18.80647,0,0,1-6.8,10,1.90835,1.90835,0,0,0-.8,2.3c.1.5.3,1,.4,1.5a1.7914,1.7914,0,0,0,2.1,1.2,2.17737,2.17737,0,0,0,.8-.5A26.088,26.088,0,0,0,15.8,19.2Zm-5.5-2.8a20.48528,20.48528,0,0,0,4.2-5.9A20.30246,20.30246,0,0,0,17,2.6a5.63773,5.63773,0,0,0-.4-1.2,6.11709,6.11709,0,0,0-1.2.5,6.42,6.42,0,0,0-1,1.3A32.81246,32.81246,0,0,0,10.3,16.4Z" transform="translate(-5.6 -0.48474)"/></g></g></svg>