<svg id="Layer_1" data-name="Layer 1" xmlns="http://www.w3.org/2000/svg" viewBox="0 0 19.15412 22.9"><title>chemistry</title><g id="Layer_2" data-name="Layer 2"><g id="Layer_1-2" data-name="Layer 1-2"><path d="M14.9,3.3V8.1a7.45857,7.45857,0,0,0,.7,1.2c1.8,3,3.6,6,5.5,9A3.29487,3.29487,0,0,1,20,22.9a3.45334,3.45334,0,0,1-1.8.5H5.8a3.13486,3.13486,0,0,1-2.9-1.7A3.205,3.205,0,0,1,3,18.3L9,8.4a1.4213,1.4213,0,0,0,.2-.6V3.4c0-.1-.1-.2-.2-.3a1.32437,1.32437,0,0,1-.7-1.8A1.33985,1.33985,0,0,1,9.6.5h4.8a1.51989,1.51989,0,0,1,1.5,1.4,1.33985,1.33985,0,0,1-.8,1.3A.30971.30971,0,0,1,14.9,3.3Zm-4.8.1V8.3a.60122.60122,0,0,1-.1.4c-1,1.7-2,3.4-3.1,5,0,.1-.1.1-.1.2A19.50157,19.50157,0,0,1,10.5,16a9.73307,9.73307,0,0,0,2.3,1.1,5.24181,5.24181,0,0,0,5.4-1.7.34913.34913,0,0,0-.1-.2c-1.3-2.2-2.6-4.3-3.9-6.5a.60123.60123,0,0,1-.1-.4V3.4Zm1.9-1h2.3c.4,0,.6-.2.6-.5s-.2-.5-.6-.5H9.6a.45751.45751,0,0,0-.5.4c0,.2.2.5.4.5h.2a18.48378,18.48378,0,0,0,2.3.1Zm3,12.2a.78874.78874,0,0,1-.8.8.8.8,0,1,1,0-1.6c.4-.1.8.3.8.8Zm-3.6-1.9a.4.4,0,1,1-.4-.4h0A.43016.43016,0,0,1,11.4,12.7Zm2.8-1.6a1.00209,1.00209,0,0,1-1,1,.94477.94477,0,0,1-1-1,.94477.94477,0,0,1,1-1,1.00209,1.00209,0,0,1,1,1Z" transform="translate(-2.46178 -0.5)"/></g></g></svg>