<?xml version="1.0" encoding="utf-8"?>
<!-- Generator: Adobe Illustrator 21.0.0, SVG Export Plug-In . SVG Version: 6.00 Build 0)  -->
<svg version="1.1" id="Layer_1" xmlns="http://www.w3.org/2000/svg" xmlns:xlink="http://www.w3.org/1999/xlink" x="0px" y="0px"
	 viewBox="0 0 400 400" style="enable-background:new 0 0 400 400;" xml:space="preserve">
<style type="text/css">
	.st0{fill:#C6A366;}
	.st1{fill:#090907;}
	.st2{fill:#433F3D;}
	.st3{fill:#55524E;}
	.st4{fill:#61625E;}
	.st5{fill:none;}
</style>
<g id="Layer_2">
	<g id="XMLID_3628_">
		<g id="XMLID_4254_">
			<path id="XMLID_4258_" class="st0" d="M112.5,301.1c-3.1,3.1-3.1,8.1,0,11.2c3.1,3.1,8.1,3.1,11.2,0l58.8-58.8l-11.2-11.2
				L112.5,301.1z"/>
			<path id="XMLID_4255_" class="st1" d="M219.7,89.9c79.4,38.1,52.2,47.6,52.2,47.6l-2.2,2.2l2.3,2.3l-10.7,10.7l-5.2,9.1
				l-73.3,73.3l-2.1-2.1l-5.5,5.5l11.2,11.2l5.5-5.5l-2.1-2.1l73.3-73.3l9.1-5.2l10.7-10.7l2.3,2.3l2.2-2.2l0.1,0.1
				c0,0,9.5-27.2,47.6,52.2l2.9-2.9c0,0-9.5-27.2-35.5-64.8l6.9-6.9c0,0-1.4-6-5.4-9.5c-3.4-4-9.5-5.4-9.5-5.4l-6.9,6.9
				C249.8,96.5,222.6,87,222.6,87L219.7,89.9z"/>
		</g>
		<g id="XMLID_4247_">
			<path id="XMLID_4251_" class="st0" d="M289.2,301.1c3.1,3.1,3.1,8.1,0,11.2c-3.1,3.1-8.1,3.1-11.2,0l-58.8-58.8l11.2-11.2
				L289.2,301.1z"/>
			<path id="XMLID_4248_" class="st1" d="M182,89.9c-79.4,38.1-52.2,47.6-52.2,47.6l2.2,2.2l-2.3,2.3l10.7,10.7l5.2,9.1l73.3,73.3
				l2.1-2.1l5.5,5.5l-11.2,11.2l-5.5-5.5l2.1-2.1l-73.3-73.3l-9.1-5.2l-10.7-10.7l-2.3,2.3l-2.2-2.2l-0.1,0.1
				c0,0-9.5-27.2-47.6,52.2l-2.9-2.9c0,0,9.5-27.2,35.5-64.8l-6.9-6.9c0,0,1.4-6,5.4-9.5c3.4-4,9.5-5.4,9.5-5.4l6.9,6.9
				C151.9,96.5,179.1,87,179.1,87L182,89.9z"/>
		</g>
		<g id="XMLID_4229_">
			<path id="XMLID_4244_" class="st2" d="M253.3,197.7c0,0,19.7,27.5,6.9,59.1l-14.5-3.1l-7.5-41.2L253.3,197.7z"/>
			<path id="XMLID_4241_" class="st3" d="M126.5,229.9c0,0,3.5-15.6,13-25.2c0,0-11.9-9.8,0.2-28.8l65,20.1l-7.8,26.1L126.5,229.9z"
				/>
			<path id="XMLID_4238_" class="st4" d="M217.7,212.5c0,0,12.9-36.6,0-61.7c0,0,20,2.6,23.5,11.3c0,0-2.6,21.7,12.2,35.6
				c0,0,0.9,14.8-6.9,23.5L217.7,212.5z"/>
			<path id="XMLID_4235_" class="st1" d="M126.5,229.9c0,0,34.2-12.5,57.3-7.8c4.3,0.9,25.4,0.3,34.8-9.3l27.7,8.4
				c0,0,4.3,26.1,13.9,35.6L229,268.1C229,268.1,142.1,289.8,126.5,229.9z"/>
			<path id="XMLID_4234_" class="st5" d="M150.9,164.2c-0.2,0.1-0.4,0.2-0.5,0.3C150.6,164.4,150.8,164.3,150.9,164.2z"/>
			<path id="XMLID_4231_" class="st2" d="M217.7,150.8c-31.3-19.1-54.6,4.3-54.6,4.3c-2.9,3.4-7.8,6.6-12,9l0,0c0,0-0.1,0.1-0.1,0.1
				c-0.2,0.1-0.4,0.2-0.5,0.3c-12.5,6.3-15.4,20.8-15.9,25.5c58.4-4.5,49.4,32,49.4,32c25.3,2.1,34.8-9.3,34.8-9.3
				C237.8,186.7,217.7,150.8,217.7,150.8z"/>
			<path id="XMLID_4230_" class="st3" d="M151.1,164.1L151.1,164.1c0,0-0.1,0.1-0.1,0.1C151,164.2,151,164.2,151.1,164.1z"/>
		</g>
	</g>
</g>
</svg>
