<svg id="Layer_1" data-name="Layer 1" xmlns="http://www.w3.org/2000/svg" viewBox="0 0 23.31929 18.95387"><title>color</title><g id="Layer_2" data-name="Layer 2"><g id="Layer_1-2" data-name="Layer 1-2"><path d="M18.4,6.9a2.99512,2.99512,0,0,1,2.1-2.6c.7-.3,1.4-.8,2.1-1.1a.66285.66285,0,0,1,.7.2,4.225,4.225,0,0,1-1.4,5.3,6.52273,6.52273,0,0,0-1.8,3.1,4.94971,4.94971,0,0,1-2.3,3.3,7.55132,7.55132,0,0,0-1.4,1.1c-1,1-1.9,2.1-2.9,3a1.43583,1.43583,0,0,1-1.4.3c-.7-.2-.5-1-.3-1.5.4-1.1.9-2.1,1.3-3.2-1.1-.4-1.8.1-1.7,1.4a5.35862,5.35862,0,0,1-.7,3.3A4.07017,4.07017,0,0,1,5.3,21C1.9,19.3.5,16.4.4,12.8A10.03657,10.03657,0,0,1,7,3.1,9.84231,9.84231,0,0,1,18,6.2C18,6.4,18.1,6.5,18.4,6.9ZM13.3,17.8a43.66148,43.66148,0,0,0,6.9-9.1L19.1,8A46.0103,46.0103,0,0,0,13.3,17.8Zm-3-11.3A1.49322,1.49322,0,0,0,9,5.1,1.36707,1.36707,0,0,0,7.6,6.5,1.24,1.24,0,0,0,8.8,7.8h0A1.31649,1.31649,0,0,0,10.3,6.5Zm3.8-.2a1.36707,1.36707,0,0,0-1.4,1.4h0A1.32372,1.32372,0,0,0,14,9a1.36707,1.36707,0,0,0,1.4-1.4,1.39724,1.39724,0,0,0-1.3-1.3ZM6.2,9.5A1.49322,1.49322,0,0,0,4.9,8.1,1.34745,1.34745,0,0,0,3.5,9.4a1.49322,1.49322,0,0,0,1.3,1.4A1.336,1.336,0,0,0,6.2,9.5ZM4.5,16a1.32372,1.32372,0,0,0,1.3-1.3v-.1a1.32372,1.32372,0,0,0-1.3-1.3,1.43017,1.43017,0,0,0-1.4,1.4A1.40834,1.40834,0,0,0,4.5,16Z" transform="translate(-0.39721 -2.52446)"/></g></g></svg>