<?xml version="1.0" encoding="utf-8"?>
<!-- Generator: Adobe Illustrator 21.0.0, SVG Export Plug-In . SVG Version: 6.00 Build 0)  -->
<svg version="1.1" id="Layer_2_1_" xmlns="http://www.w3.org/2000/svg" xmlns:xlink="http://www.w3.org/1999/xlink" x="0px" y="0px"
	 viewBox="0 0 400 400" style="enable-background:new 0 0 400 400;" xml:space="preserve">
<style type="text/css">
	.st0{fill:#C9C9C9;}
	.st1{fill:#BA6642;}
	.st2{fill:#30ADC1;}
	.st3{opacity:0.35;enable-background:new    ;}
	.st4{fill:#4D382A;}
	.st5{fill:#1D1D1B;}
	.st6{fill:#359FAA;}
	.st7{fill:#5BC3CE;}
</style>
<g id="Layer_15_1_">
	<g>
		<g id="_x34__2_">
			<g>
				<path class="st0" d="M310.7,83.4h-263l0,13.4H7v16.1c0,5.9,3.7,10.7,8.3,10.7H18c4.6,0,8.5,4.8,8.9,10.7l8.3,150.5h249.6h59.3
					l8.3-150.5c0.3-5.9,4.3-10.7,8.9-10.7h-6.9c4.6,0,8.3-4.8,8.3-10.7V96.8h-51.9L310.7,83.4z"/>
				<rect x="63.7" y="130.4" class="st1" width="8.3" height="154.5"/>
				<g>
					<rect x="125.1" y="130.4" class="st1" width="8.3" height="154.5"/>
					<g>
						<rect x="71.3" y="130.4" class="st2" width="53.7" height="154.5"/>
						<path class="st3" d="M125.1,284.9V130.4l-26.9,0.2v12.1c0,0,18.2,4.8,20.6,14.1C121.1,166.1,125.1,284.9,125.1,284.9z"/>
						<path class="st3" d="M71.3,284.9V130.4l26.9,0.2v12.1c0,0-18.2,4.8-20.6,14.1C75.3,166.1,71.3,284.9,71.3,284.9z"/>
						<path class="st4" d="M125.1,149.2c0,0-7.8-6.5-26.9-6.5c-19.1,0-26.9,6.5-26.9,6.5v-18.8h53.7
							C125.1,130.4,125.1,149.2,125.1,149.2z"/>
					</g>
				</g>
				<g>
					<rect x="188.4" y="130.4" class="st1" width="8.3" height="154.5"/>
					<g>
						<rect x="134.7" y="130.4" class="st2" width="53.7" height="154.5"/>
						<path class="st3" d="M188.4,284.9V130.4l-26.9,0.2v12.1c0,0,18.2,4.8,20.6,14.1C184.4,166.1,188.4,284.9,188.4,284.9z"/>
						<path class="st3" d="M134.7,284.9V130.4l26.9,0.2v12.1c0,0-18.2,4.8-20.6,14.1C138.7,166.1,134.7,284.9,134.7,284.9z"/>
						<path class="st4" d="M188.4,149.2c0,0-7.8-6.5-26.9-6.5s-26.9,6.5-26.9,6.5v-18.8h53.7V149.2z"/>
					</g>
				</g>
				<g>
					<rect x="251.7" y="130.4" class="st1" width="8.3" height="154.5"/>
					<g>
						<rect x="198" y="130.4" class="st2" width="53.7" height="154.5"/>
						<path class="st3" d="M251.7,284.9V130.4l-26.9,0.2v12.1c0,0,18.2,4.8,20.6,14.1C247.8,166.1,251.7,284.9,251.7,284.9z"/>
						<path class="st3" d="M198,284.9V130.4l26.9,0.2v12.1c0,0-18.2,4.8-20.6,14.1C202,166.1,198,284.9,198,284.9z"/>
						<path class="st4" d="M251.7,149.2c0,0-7.8-6.5-26.9-6.5c-19.1,0-26.9,6.5-26.9,6.5v-18.8h53.7V149.2z"/>
					</g>
				</g>
				<g>
					<rect x="315.1" y="130.4" class="st1" width="8.3" height="154.5"/>
					<g>
						<rect x="261.3" y="130.4" class="st2" width="53.7" height="154.5"/>
						<path class="st3" d="M315.1,284.9V130.4l-26.9,0.2v12.1c0,0,18.2,4.8,20.6,14.1C311.1,166.1,315.1,284.9,315.1,284.9z"/>
						<path class="st3" d="M261.3,284.9V130.4l26.9,0.2v12.1c0,0-18.2,4.8-20.6,14.1C265.3,166.1,261.3,284.9,261.3,284.9z"/>
						<path class="st4" d="M315.1,149.2c0,0-7.8-6.5-26.9-6.5s-26.9,6.5-26.9,6.5v-18.8h53.7V149.2z"/>
					</g>
				</g>
				<g>
					<rect x="47.7" y="78" class="st5" width="263" height="5.4"/>
					<rect x="31.7" y="125.2" class="st5" width="295" height="5.4"/>
					<rect x="7" y="91.4" class="st5" width="40.7" height="5.4"/>
					<rect x="310.7" y="91.4" class="st5" width="51.9" height="5.4"/>
				</g>
			</g>
		</g>
	</g>
	<path class="st6" d="M35.1,284.9h308.9c0,0,113.5,45.3,12.8,45.3c-43.7,0-10.2,4.7-72.2,4.7s-105.1-16.5-160.2-16.5
		C12.7,318.4,35.1,284.9,35.1,284.9z"/>
	<path class="st7" d="M288,143l2,141h23c0,0,1-117-7-130S288,143,288,143z"/>
	<path class="st7" d="M224,143l2,141h23c0,0,1-117-7-130S224,143,224,143z"/>
	<path class="st7" d="M161,143l2,141h23c0,0,1-117-7-130S161,143,161,143z"/>
	<path class="st7" d="M97,143l2,141h23c0,0,1-117-7-130S97,143,97,143z"/>
	<path class="st2" d="M178,306l43,13c33,0,44,6,63,3s26-4,48-4s43,0,43,0l1-11l-29-10l-25,1c0,0,1,1-23,4s-36,2-36,2l-33-7l-18-1
		l-24,2l-32-4l-27,3H95c0,0-5-9-22-6s-20,6-20,6l26,11c0,0-14,4,25,1s52-4,52-4L178,306z"/>
</g>
</svg>
