<svg id="Layer_1" data-name="Layer 1" xmlns="http://www.w3.org/2000/svg" viewBox="0 0 22.92601 18.52595"><title>derivatives</title><g id="Layer_2" data-name="Layer 2"><g id="Layer_1-2" data-name="Layer 1-2"><path d="M7.9,11.4a17.38293,17.38293,0,0,1-1.5,1.3,1.68939,1.68939,0,0,1-1,.3,1.01974,1.01974,0,0,1-.8-.5,3.194,3.194,0,0,1-.3-1.4,5.26257,5.26257,0,0,1-1.2,1.4A1.60584,1.60584,0,0,1,2,13a1.23077,1.23077,0,0,1-1-.5,1.57478,1.57478,0,0,1-.4-1.3A4.10553,4.10553,0,0,1,1.7,8.4,2.64508,2.64508,0,0,1,4,7.1a1.26834,1.26834,0,0,1,.6.1c.1.1.3.2.4.3L6,3.4a7.772,7.772,0,0,1,1.6-.2c.1,0,.1,0,.1.1s-.1.5-.3,1.4A45.55724,45.55724,0,0,0,6,11.1a.60123.60123,0,0,0,.1.4c.1.1.2.2.3.2.3,0,.8-.4,1.4-1.1Zm-5,.3c.4,0,.9-.4,1.3-1.1a4.20049,4.20049,0,0,0,.6-2.1,1.07214,1.07214,0,0,0-.2-.6.54993.54993,0,0,0-.5-.3q-.6,0-1.2,1.2a4.20049,4.20049,0,0,0-.6,2.1.73474.73474,0,0,0,.2.6.51953.51953,0,0,0,.4.2Z" transform="translate(-0.57399 -2.78579)"/><path d="M15,19.2a10.70369,10.70369,0,0,1-1.6,1.4,2.99463,2.99463,0,0,1-1,.4.89069.89069,0,0,1-.8-.5,4.01257,4.01257,0,0,1-.3-1.5A4.70779,4.70779,0,0,1,10,20.5a2.10617,2.10617,0,0,1-1.3.5,1.38178,1.38178,0,0,1-1.1-.6A2.38933,2.38933,0,0,1,7.1,19a4.23408,4.23408,0,0,1,1.2-3,3.56372,3.56372,0,0,1,2.6-1.4,1.26834,1.26834,0,0,1,.6.1,1.75562,1.75562,0,0,1,.5.4l1.1-4.4a5.07921,5.07921,0,0,1,1.7-.3c.1,0,.1,0,.1.1a7.99642,7.99642,0,0,1-.4,1.5A41.53418,41.53418,0,0,0,13,19c0,.2,0,.3.1.4s.2.2.3.2q.45,0,1.5-1.2Zm-5.3.4c.5,0,.9-.4,1.3-1.2a4.64529,4.64529,0,0,0,.6-2.3,1.854,1.854,0,0,0-.2-.7.54993.54993,0,0,0-.5-.3c-.5,0-.9.4-1.3,1.3A7.0605,7.0605,0,0,0,9,18.8a1.07215,1.07215,0,0,0,.2.6C9.3,19.6,9.5,19.6,9.7,19.6Z" transform="translate(-0.57399 -2.78579)"/><path d="M23.5,19.2A5.02718,5.02718,0,0,1,20.3,21a1.64863,1.64863,0,0,1-1.7-1.5,2.27083,2.27083,0,0,1-2,1.5,1.396,1.396,0,0,1-.9-.3.67521.67521,0,0,1-.4-.6c0-.1.1-.3.4-.5a.99837.99837,0,0,1,.5-.4c.1,0,.2.1.2.3.2.4.4.7.7.7s.6-.2.9-.7a6.35627,6.35627,0,0,0,.6-1.8,5.9019,5.9019,0,0,0,.2-1.4c0-.5-.2-.8-.6-.8-.5,0-1.1.7-1.9,2A6.99117,6.99117,0,0,1,15,19.2h-.2v-.7a10.6272,10.6272,0,0,0,.9-1.1,11.60183,11.60183,0,0,1,1.6-2.1,2.62778,2.62778,0,0,1,1.5-.7c.8,0,1.3.5,1.5,1.4a2.83611,2.83611,0,0,1,.8-1.1,1.20871,1.20871,0,0,1,1-.3,1.02782,1.02782,0,0,1,1.1,1c0,.1-.1.2-.4.5s-.5.4-.6.4-.1-.1-.1-.3a.76385.76385,0,0,0-.2-.5.51954.51954,0,0,0-.4-.2c-.4,0-.7.5-1,1.5a8.51866,8.51866,0,0,0-.4,2.3,1.85394,1.85394,0,0,0,.2.7.60467.60467,0,0,0,.6.3c.7,0,1.5-.6,2.6-1.8Z" transform="translate(-0.57399 -2.78579)"/><path d="M3.6,20.9,16.1,4.2c.8-1-1-2-1.7-1L1.9,19.8c-.8,1.1.9,2.1,1.7,1.1Z" transform="translate(-0.57399 -2.78579)"/></g></g></svg>