<svg id="Layer_1" data-name="Layer 1" xmlns="http://www.w3.org/2000/svg" viewBox="0 0 23.00444 23.1"><title>distance</title><g id="Layer_2" data-name="Layer 2"><g id="Layer_1-2" data-name="Layer 1-2"><path d="M15.8,18.1v1.5H4.8A4.22535,4.22535,0,0,1,.6,15.4a4.14044,4.14044,0,0,1,4.1-4.2H19.4A2.60291,2.60291,0,0,0,22,8.5a2.61584,2.61584,0,0,0-2.4-2.6H8.3V4.3H19.2a4.2457,4.2457,0,0,1,4.4,4.1A4.15168,4.15168,0,0,1,20,12.7a14.76866,14.76866,0,0,1-2.1.1H4.9a2.68877,2.68877,0,0,0-2.7,2.7,2.77345,2.77345,0,0,0,2.2,2.7c.2,0,.5.1.7,0H15.7Z" transform="translate(-0.6 -0.5)"/><path d="M17.4,23.5V15.9h3.7a2.08733,2.08733,0,0,1,2,1.3,1.86694,1.86694,0,0,1-.9,2.4.34914.34914,0,0,1-.2.1c.2.1.4.1.6.2a1.42386,1.42386,0,0,1,.9,1.3,4.86864,4.86864,0,0,1-.1,1.2,1.38266,1.38266,0,0,1-1.2,1.1,3.40192,3.40192,0,0,1-1,.1H17.5A.09794.09794,0,0,0,17.4,23.5Zm1.5-4.6h2.2c.2,0,.3-.1.5-.1a.54834.54834,0,0,0,.4-.6.56.56,0,0,0-.5-.6c-.1,0-.3-.1-.4-.1H19v1.4Zm0,1.5v1.5h2.2a.90151.90151,0,0,0,.5-.1.78077.78077,0,0,0,.4-.4.73966.73966,0,0,0-.4-.9h-.2a21.75031,21.75031,0,0,0-2.5-.1Z" transform="translate(-0.6 -0.5)"/><path d="M6.6,8.2H5.2A.34914.34914,0,0,1,5.1,8c-.2-.6-.4-1.3-.6-1.9,0-.1-.1-.2-.3-.2H2.9c-.1-.1-.2,0-.2.1h0c-.2.7-.4,1.3-.6,2a.21508.21508,0,0,1-.2.2H.6c0-.1,0-.2.1-.2C1.3,5.5,2,3.1,2.7.7c.1-.2.2-.2.3-.2H4.1c.1,0,.2,0,.2.2h0C5.1,3.1,5.8,5.6,6.6,8ZM4.2,4.3,3.6,2.1h0L3,4.3Z" transform="translate(-0.6 -0.5)"/></g></g></svg>