<svg id="Layer_1" data-name="Layer 1" xmlns="http://www.w3.org/2000/svg" viewBox="0 0 23 23"><title>drag_window</title><g id="Layer_2" data-name="Layer 2"><g id="Layer_1-2" data-name="Layer 1-2"><path d="M11.1,15.7V12.9H8.3V14c0,.1,0,.3-.2.3a.19161.19161,0,0,1-.3-.1,16.605,16.605,0,0,1-1.4-1.3c-.3-.2-.5-.5-.8-.7-.1-.1-.2-.3-.1-.4l.1-.1c.7-.7,1.4-1.3,2.2-2h.4a.36737.36737,0,0,1,.1.3v1.1h2.8V8.3H9.9c-.1,0-.2-.1-.3-.2.1-.1.1-.2.2-.3s.1-.2.2-.3c.6-.6,1.1-1.3,1.7-1.9.2-.2.4-.2.5,0,.7.7,1.3,1.5,2,2.2a.36737.36737,0,0,1,.1.3c0,.1-.1.2-.3.2H12.8v2.8h2.8V10c0-.1.1-.2.2-.3a.36737.36737,0,0,1,.3.1c.7.7,1.5,1.3,2.2,2,.1.1.2.3.1.4l-.1.1c-.7.7-1.4,1.3-2.2,2a.36737.36737,0,0,1-.3.1c-.1-.1-.2-.2-.2-.3V13H12.8v2.8h1.1c.1,0,.2.1.3.2s0,.2-.1.3c-.7.7-1.3,1.5-2,2.2-.1.1-.3.2-.4.1l-.1-.1c-.7-.7-1.3-1.5-2-2.2a.36737.36737,0,0,1-.1-.3c0-.1.2-.2.3-.2h1A.774.774,0,0,1,11.1,15.7Z" transform="translate(-0.5 -0.5)"/><path d="M12,23.5A11.43819,11.43819,0,0,1,.5,12,11.43819,11.43819,0,0,1,12,.5,11.43819,11.43819,0,0,1,23.5,12,11.56629,11.56629,0,0,1,12,23.5Zm0-21A9.56045,9.56045,0,0,0,2.5,12,9.56045,9.56045,0,0,0,12,21.5,9.56045,9.56045,0,0,0,21.5,12,9.56045,9.56045,0,0,0,12,2.5Z" transform="translate(-0.5 -0.5)"/></g></g></svg>