<svg id="Layer_2" data-name="Layer 2" xmlns="http://www.w3.org/2000/svg" viewBox="0 0 267 267"><title>flag</title><polygon points="267 81.263 217.825 130.438 267 179.62 168.643 179.62 168.643 150.855 115.243 82.432 267 81.263" style="fill:#cd3f39"/><polygon points="168.643 82.432 168.643 150.855 11.855 150.855 11.855 23.733 168.643 23.733 168.643 82.432" style="fill:#f14742"/><polygon points="23.721 133.055 23.721 267 0 267 0 150.855 23.721 133.055" style="fill:#6fc5d6"/><path d="M90.22147,70.65333v37.38L66.5,90.23333v-19.58A4.15029,4.15029,0,0,1,70.65333,66.5h15.4148A4.15029,4.15029,0,0,1,90.22147,70.65333Z" transform="translate(-66.5 -66.5)" style="fill:#6fc5d6"/><rect y="23.73333" width="23.72147" height="127.12167" style="fill:#cd3f39"/></svg>