<?xml version="1.0" encoding="utf-8"?>
<!-- Generator: Adobe Illustrator 21.0.0, SVG Export Plug-In . SVG Version: 6.00 Build 0)  -->
<svg version="1.1" id="Layer_2_1_" xmlns="http://www.w3.org/2000/svg" xmlns:xlink="http://www.w3.org/1999/xlink" x="0px" y="0px"
	 viewBox="0 0 400 400" style="enable-background:new 0 0 400 400;" xml:space="preserve">
<style type="text/css">
	.st0{fill:#1CBEC1;}
	.st1{fill:#0EA3A7;}
	.st2{fill:#4D5F73;}
	.st3{fill:#2C3D4F;}
	.st4{fill:#F44236;}
	.st5{fill:#D61818;}
	.st6{fill:#FFC207;}
	.st7{fill:#9198A8;}
	.st8{fill:#7E8796;}
	.st9{fill:#FFFFFF;}
</style>
<g id="Layer_13_2_">
	<g>
		<polygon class="st0" points="136,82.9 151.6,82.9 151.6,235.9 136,235.9 		"/>
		<polygon class="st1" points="143.8,82.9 151.6,82.9 151.6,235.9 143.8,235.9 		"/>
		<path class="st2" d="M104.8,301.5H132v40.9h-27.2L104.8,301.5L104.8,301.5z M249.1,301.5h27.2v40.9h-27.2V301.5L249.1,301.5z
			 M176.9,301.5h27.2v40.9h-27.2V301.5L176.9,301.5z"/>
		<path class="st3" d="M190.5,342.4v-40.9h13.6v40.9H190.5L190.5,342.4z M249.1,301.5h27.2v40.9h-27.2V301.5L249.1,301.5z"/>
		<path class="st0" d="M51.8,350c0,0.1,0,32.6,32.6,32.6c14,0,22-6,26.5-12.9c4.5,6.9,12.5,12.9,26.5,12.9c14,0,22-6,26.5-12.9
			c4.5,6.9,12.5,12.9,26.5,12.9c14,0,22-6,26.5-12.9c4.6,6.9,12.5,12.9,26.5,12.9c14,0,22-6,26.5-12.9c4.6,6.9,12.5,12.9,26.5,12.9
			c32.6,0,32.6-32.5,32.6-32.6h-12l-0.1,1.4c-0.4,4.7-3.2,19.1-20.4,19.1c-19.6,0-20.5-18.6-20.5-20.4V350h-12v0.1
			c0,1.8-1,20.4-20.5,20.4c-19.6,0-20.5-18.6-20.5-20.4V350h-12v0.1c0,1.8-1,20.4-20.5,20.4c-19.6,0-20.5-18.6-20.5-20.4V350h-12
			v0.1c0,1.8-1,20.4-20.5,20.4c-19.6,0-20.5-18.6-20.5-20.4V350h-12v0.1c0,1.8-1,20.4-20.5,20.4c-17.2,0-20-14.4-20.4-19.1l-0.1-1.4
			H51.8L51.8,350z"/>
		<path class="st1" d="M190.5,382.5c14,0,22-6,26.5-12.9c4.6,6.9,12.5,12.9,26.5,12.9c14,0,22-6,26.5-12.9
			c4.6,6.9,12.5,12.9,26.5,12.9c32.6,0,32.6-32.5,32.6-32.6h-12l-0.1,1.4c-0.4,4.7-3.2,19.1-20.4,19.1c-19.6,0-20.5-18.6-20.5-20.4
			V350h-12v0.1c0,1.8-1,20.4-20.5,20.4c-19.6,0-20.5-18.6-20.5-20.4V350h-12v0.1c0,1.8-1,20.4-20.5,20.4V382.5L190.5,382.5z"/>
		<path class="st2" d="M120.2,231h23.7h22.9l-23.3-16.6L120.2,231L120.2,231z M172.1,228.9l-3.6-32.2l-20.9,14.8L172.1,228.9
			L172.1,228.9z M139.3,211.5l-20.2-14.4l-3.5,31.2L139.3,211.5L139.3,211.5z M120.2,187.1l19.1-13.6L123,162L120.2,187.1
			L120.2,187.1z M143.5,170.5l16.7-11.9l-16.7-11.9l-16.7,11.9L143.5,170.5L143.5,170.5z M139.3,143.9l-13.2-9.4l-2.3,20.3
			L139.3,143.9L139.3,143.9z M127.2,124.9l12.1-8.6L129,109L127.2,124.9L127.2,124.9z M143.5,113.3l12.6-9l-10.6-7.5h-1.7h-2.4
			l-10.6,7.5L143.5,113.3L143.5,113.3z M153.9,96.8l3.7,2.7l-0.3-2.7H153.9L153.9,96.8z M158.6,108.5l-11,7.8l12.9,9.1L158.6,108.5
			L158.6,108.5z M143.5,119.3l-15.2,10.8l15.2,10.8l15.2-10.8L143.5,119.3L143.5,119.3z M147.7,143.9l16.2,11.5l-2.4-21.4
			L147.7,143.9L147.7,143.9z M164.6,161.5l-16.9,12l19.8,14.1L164.6,161.5L164.6,161.5z M143.5,176.5l-22.5,16l22.5,16l22.5-16
			L143.5,176.5L143.5,176.5z M133.1,96.8h-2.7l-0.2,2.1L133.1,96.8L133.1,96.8z M143.8,235.9h-31.3h-2.7l0.3-2.7l15.6-139.1l0.2-2.2
			h2.2h15.6h15.6h2.2l0.2,2.2l15.6,139.1l0.3,2.7h-2.7H143.8L143.8,235.9z"/>
		<path class="st3" d="M143.8,231h22.9l-22.9-16.3v-6.5l22.1-15.7l-22.1-15.7v-6.5l16.3-11.6l-16.3-11.6v-6.5l14.8-10.5l-14.8-10.5
			v-6.5l12.3-8.7l-10.6-7.6h-1.7v-4.9h15.6h2.2l0.2,2.2l15.6,139.1l0.3,2.7h-2.7h-31.3V231L143.8,231z M172.1,228.9l-3.6-32.2
			l-20.9,14.8L172.1,228.9L172.1,228.9z M153.9,96.8l3.7,2.6l-0.3-2.6H153.9L153.9,96.8z M158.6,108.5l-11,7.8l12.9,9.1L158.6,108.5
			L158.6,108.5z M147.7,143.9l16.2,11.5l-2.4-21.4L147.7,143.9L147.7,143.9z M164.6,161.5l-16.9,12l19.9,14.1L164.6,161.5
			L164.6,161.5z"/>
		<path class="st4" d="M198.4,195.8h91.8c2.1,0,3.7,1.7,3.7,3.7v25.7c0,2.1-1.7,3.7-3.7,3.7h-91.8c-2.1,0-3.7-1.7-3.7-3.7v-25.7
			C194.6,197.5,196.3,195.8,198.4,195.8L198.4,195.8z"/>
		<path class="st5" d="M241.3,195.8h48.9c2.1,0,3.7,1.7,3.7,3.7v25.7c0,2.1-1.7,3.7-3.7,3.7h-48.9V195.8L241.3,195.8z"/>
		<g>
			<path class="st6" d="M137.2,79.3c0,0-21.4-12.7-16.6-31.5c4.8-18.8,13.2-16.9,16.5-31.8c0,0,19.1,9.5,15.6,30.9
				c0,0,5.7-1.2,7.3-11.2c0,0,15.6,28.9-9.2,42.2c0,0,5.2-11.2,2.9-17.5c0,0-1.2,5.2-5.3,8.8c0,0-0.1-6.4-5.2-11.3
				c-5.1-4.9-5.3-10.8-5.3-10.8S123.1,62.7,137.2,79.3L137.2,79.3z"/>
			<path class="st4" d="M150.7,77.9c0,0,5.2-11.2,2.9-17.5c0,0-1.2,5.2-5.3,8.8c0,0-0.1-6.4-5.2-11.3c-5.1-4.9-5.3-10.8-5.3-10.8
				s-14.7,15.6-0.5,32.2c0,0-14.8-14.1-12.2-27.3c2.6-13.1,12.7-16.6,14.7-23.2c0,0,13.4,11.9,11.4,28.6c0,0,4.6-1.6,8.4-7
				C159.5,50.4,161.9,66.9,150.7,77.9L150.7,77.9z"/>
		</g>
		<path class="st7" d="M94.9,235.9h191.3c4.3,0,7.8,3.5,7.8,7.8v53.6c0,4.3-3.5,7.8-7.8,7.8H94.9c-4.3,0-7.8-3.5-7.8-7.8v-53.6
			C87.1,239.4,90.6,235.9,94.9,235.9L94.9,235.9z"/>
		<path class="st8" d="M190.5,235.9h95.6c4.3,0,7.8,3.5,7.8,7.8v53.6c0,4.3-3.5,7.8-7.8,7.8h-95.6V235.9L190.5,235.9z"/>
		<path class="st9" d="M232.1,252h20.2v17.3h-20.2V252L232.1,252z M204,252h20.3v17.3H204V252L204,252z M260.1,252h20.2v17.3h-20.2
			V252L260.1,252z"/>
	</g>
</g>
</svg>
