<?xml version="1.0" encoding="utf-8"?>
<!-- Generator: Adobe Illustrator 21.0.0, SVG Export Plug-In . SVG Version: 6.00 Build 0)  -->
<svg version="1.1" id="Layer_2_1_" xmlns="http://www.w3.org/2000/svg" xmlns:xlink="http://www.w3.org/1999/xlink" x="0px" y="0px"
	 viewBox="0 0 400 400" style="enable-background:new 0 0 400 400;" xml:space="preserve">
<style type="text/css">
	.st0{fill:#1CBEC1;}
	.st1{fill:#0EA3A7;}
	.st2{fill:#4D5F73;}
	.st3{fill:#2C3D4F;}
	.st4{fill:#9198A8;}
	.st5{fill:#7E8796;}
	.st6{fill:#FFC207;}
	.st7{fill:#FFA906;}
	.st8{fill:#F44236;}
	.st9{fill:#D61818;}
</style>
<g id="Layer_15_1_">
	<g>
		<path class="st0" d="M53.8,244c0,0.1,0,34.8,34.9,34.8c15,0,23.5-6.4,28.4-13.8c4.9,7.3,13.4,13.8,28.4,13.8
			c15,0,23.5-6.4,28.4-13.8c4.9,7.3,13.4,13.8,28.4,13.8c15,0,23.5-6.4,28.4-13.8c4.9,7.3,13.4,13.8,28.4,13.8
			c15,0,23.6-6.4,28.4-13.8c4.9,7.3,13.4,13.8,28.4,13.8c34.9,0,34.9-34.8,34.9-34.8h-12.9l-0.1,1.5c-0.5,5-3.4,20.4-21.9,20.4
			c-20.9,0-21.9-19.9-22-21.8V244h-12.9v0.1c0,1.9-1,21.8-22,21.8c-20.9,0-21.9-19.9-22-21.8V244h-12.9v0.1c0,1.9-1,21.8-22,21.8
			s-21.9-19.9-22-21.8V244h-12.9v0.1c0,1.9-1,21.8-22,21.8c-20.9,0-21.9-19.9-22-21.8V244h-12.9v0.1c0,1.9-1,21.8-22,21.8
			c-18.5,0-21.4-15.5-21.9-20.4l-0.1-1.5H53.8L53.8,244z"/>
		<path class="st1" d="M202.3,278.8c15,0,23.5-6.4,28.4-13.8c4.9,7.3,13.4,13.8,28.4,13.8c15,0,23.6-6.4,28.4-13.8
			c4.9,7.3,13.4,13.8,28.4,13.8c34.9,0,34.9-34.8,34.9-34.9h-12.9l-0.1,1.5c-0.5,5-3.4,20.4-21.9,20.4c-20.9,0-21.9-19.9-22-21.8
			V244h-12.9v0.1c0,1.9-1,21.8-22,21.8c-20.9,0-21.9-19.9-22-21.8V244h-12.9v0.1c0,1.9-1,21.8-22,21.8V278.8L202.3,278.8z"/>
		<path class="st0" d="M53.8,294.3c0,0.1,0,34.8,34.9,34.8c15,0,23.5-6.4,28.4-13.8c4.9,7.3,13.4,13.8,28.4,13.8
			c15,0,23.5-6.4,28.4-13.8c4.9,7.3,13.4,13.8,28.4,13.8c15,0,23.5-6.4,28.4-13.8c4.9,7.3,13.4,13.8,28.4,13.8
			c15,0,23.6-6.4,28.4-13.8c4.9,7.3,13.4,13.8,28.4,13.8c34.9,0,34.9-34.8,34.9-34.8h-12.9l-0.1,1.5c-0.5,5-3.4,20.4-21.9,20.4
			c-20.9,0-21.9-19.9-22-21.8v-0.1h-12.9v0.1c0,1.9-1,21.8-22,21.8c-20.9,0-21.9-19.9-22-21.8v-0.1h-12.9v0.1c0,1.9-1,21.8-22,21.8
			s-21.9-19.9-22-21.8v-0.1h-12.9v0.1c0,1.9-1,21.8-22,21.8c-20.9,0-21.9-19.9-22-21.8v-0.1h-12.9v0.1c0,1.9-1,21.8-22,21.8
			c-18.5,0-21.4-15.5-21.9-20.4l-0.1-1.5H53.8L53.8,294.3z"/>
		<path class="st1" d="M202.3,329.2c15,0,23.5-6.4,28.4-13.8c4.9,7.3,13.4,13.8,28.4,13.8c15,0,23.6-6.4,28.4-13.8
			c4.9,7.3,13.4,13.8,28.4,13.8c34.9,0,34.9-34.8,34.9-34.9h-12.9l-0.1,1.5c-0.5,5-3.4,20.4-21.9,20.4c-20.9,0-21.9-19.9-22-21.8
			v-0.1h-12.9v0.1c0,1.9-1,21.8-22,21.8c-20.9,0-21.9-19.9-22-21.8v-0.1h-12.9v0.1c0,1.9-1,21.8-22,21.8V329.2L202.3,329.2z"/>
		<path class="st2" d="M94.7,234.9h215.3c6.7,0,12.3-5.5,12.3-12.2V114.1c0-6.7-5.5-12.3-12.3-12.3H94.7c-6.7,0-12.3,5.5-12.3,12.3
			v108.5C82.4,229.4,87.9,234.9,94.7,234.9L94.7,234.9z"/>
		<path class="st3" d="M202.3,234.9h107.6c6.7,0,12.2-5.5,12.2-12.2V114.1c0-6.7-5.5-12.2-12.2-12.2H202.3V234.9L202.3,234.9z"/>
		<path class="st0" d="M106.7,234.9h2.5h17.5h2.5h10.7c-5.7,0-10.4-12.1-10.7-27.3v-47.9c0-4.2-3.1-7.8-7.3-9v-48.7H114v48.7
			c-4.2,1.2-7.3,4.8-7.3,9v47.9c-0.3,15.2-4.9,27.3-10.7,27.3H106.7L106.7,234.9z M275.5,234.9h2.5h17.5h2.5h10.7
			c-5.7,0-10.4-12.1-10.7-27.3v-47.9c0-4.2-3.1-7.8-7.3-9v-48.7h-7.8v48.7c-4.2,1.2-7.3,4.8-7.3,9v47.9
			c-0.3,15.2-4.9,27.3-10.7,27.3H275.5L275.5,234.9z M219.2,234.9h2.5h17.5h2.5h10.7c-5.7,0-10.4-12.1-10.7-27.3v-47.9
			c0-4.2-3.1-7.8-7.3-9v-48.7h-7.8v48.7c-4.2,1.2-7.3,4.8-7.3,9v47.9c-0.3,15.2-4.9,27.3-10.7,27.3H219.2L219.2,234.9z M162.9,234.9
			h2.5h17.5h2.5h10.7c-5.7,0-10.4-12.1-10.7-27.3v-47.9c0-4.2-3.1-7.8-7.3-9v-48.7h-7.8v48.7c-4.2,1.2-7.3,4.8-7.3,9v47.9
			c-0.3,15.2-5,27.3-10.7,27.3H162.9L162.9,234.9z"/>
		<path class="st1" d="M275.5,234.9h2.5h17.5h2.5h10.7c-5.7,0-10.4-12.1-10.7-27.3v-47.9c0-4.2-3.1-7.8-7.3-9v-48.7h-7.8v48.7
			c-4.2,1.2-7.3,4.8-7.3,9v47.9c-0.3,15.2-5,27.3-10.7,27.3H275.5L275.5,234.9z M219.2,234.9h2.5h17.5h2.5h10.7
			c-5.7,0-10.4-12.1-10.7-27.3v-47.9c0-4.2-3.1-7.8-7.3-9v-48.7h-7.8v48.7c-4.2,1.2-7.3,4.8-7.3,9v47.9
			c-0.3,15.2-4.9,27.3-10.7,27.3H219.2L219.2,234.9z"/>
		<path class="st4" d="M102.1,101.9h200.4V90.9c0-6-4.9-10.9-10.9-10.9H113.1c-6,0-10.9,4.9-10.9,10.9L102.1,101.9L102.1,101.9z"/>
		<path class="st5" d="M202.3,101.9h100.2V90.9c0-6-4.9-10.9-10.9-10.9h-89.3V101.9L202.3,101.9z"/>
		<ellipse class="st6" cx="82.4" cy="279.2" rx="58.7" ry="58.7"/>
		<path class="st7" d="M82.4,220.5c32.4,0,58.7,26.3,58.7,58.7c0,32.4-26.3,58.7-58.7,58.7V220.5L82.4,220.5z"/>
		<polygon class="st8" points="73.4,242 53,290.3 80.3,283.1 65.8,325.3 111.9,266.6 76.7,270.9 98.8,240.5 		"/>
		<path class="st9" d="M82.4,304.2l29.5-37.5l-29.5,3.6V304.2L82.4,304.2z M82.4,263l16.3-22.4l-16.3,0.9V263L82.4,263z"/>
	</g>
</g>
</svg>
