<svg id="Layer_1" data-name="Layer 1" xmlns="http://www.w3.org/2000/svg" xmlns:xlink="http://www.w3.org/1999/xlink" viewBox="0 0 283.99997 302.69504"><defs><clipPath id="clip-path" transform="translate(-58.04001 -48.26398)"><rect x="58.04001" y="48.07999" width="283.91998" height="303.84003" style="fill:none"/></clipPath></defs><title>industres-1</title><g style="clip-path:url(#clip-path)"><path d="M198.04,158.959H341.747a29.07614,29.07614,0,0,0,.293-4.105,29.7327,29.7327,0,0,0-42.488-26.836,29.71357,29.71357,0,1,0-58.41,8.969,29.70267,29.70267,0,0,0-43.102,21.972Zm0,0" transform="translate(-58.04001 -48.26398)" style="fill:#dedde0"/><path d="M254.04,214.959l-78.363,42.743,10.363,93.257h156v-136l-88,48Zm32,72h24v24h-24Zm-64,24h-24v-24h24Zm0,0" transform="translate(-58.04001 -48.26398)" style="fill:#006c70"/></g><path d="M110.04,310.959v-24h12.398V158.963H79.372L58.04,350.959h64.398v-40Zm0,0" transform="translate(-58.04001 -48.26398)" style="fill:#00d7df"/><path d="M164.708,158.963h-42.27V286.959H134.04v24H122.438v40H186.04l-10.363-93.257Zm0,0" transform="translate(-58.04001 -48.26398)" style="fill:#00a1a7"/><path d="M214.313,106.619a31.43273,31.43273,0,0,0-44.925-28.378,31.4211,31.4211,0,1,0-61.762,9.488,31.413,31.413,0,0,0-45.586,23.23H214.005a31.16923,31.16923,0,0,0,.308-4.34Zm0,0" transform="translate(-58.04001 -48.26398)" style="fill:#acabb1"/><rect x="139.99998" y="238.69504" width="24" height="24" style="fill:#fff"/><rect x="227.99998" y="238.69504" width="24" height="24" style="fill:#fff"/><rect x="51.99998" y="238.69504" width="24" height="24" style="fill:#fff"/><path d="M164.708,158.963h9.332v-24h-104v24Zm0,0" transform="translate(-58.04001 -48.26398)" style="fill:#565659"/></svg>