<svg id="Layer_1" data-name="Layer 1" xmlns="http://www.w3.org/2000/svg" viewBox="0 0 23 23"><title>info</title><g id="Layer_2" data-name="Layer 2"><g id="Layer_1-2" data-name="Layer 1-2"><text transform="translate(8.7744 16.5376)" style="isolation:isolate;font-size:16.80150032043457px;font-family:ClarendonBT-Light, Clarendon Lt BT">i</text><path d="M12,23.5A11.43819,11.43819,0,0,1,.5,12,11.43819,11.43819,0,0,1,12,.5,11.43819,11.43819,0,0,1,23.5,12,11.56629,11.56629,0,0,1,12,23.5Zm0-21A9.56045,9.56045,0,0,0,2.5,12,9.56045,9.56045,0,0,0,12,21.5,9.56045,9.56045,0,0,0,21.5,12,9.56045,9.56045,0,0,0,12,2.5Z" transform="translate(-0.5 -0.5)"/></g></g></svg>