<?xml version="1.0" encoding="utf-8"?>
<!-- Generator: Adobe Illustrator 21.0.0, SVG Export Plug-In . SVG Version: 6.00 Build 0)  -->
<svg version="1.1" xmlns="http://www.w3.org/2000/svg" xmlns:xlink="http://www.w3.org/1999/xlink" x="0px" y="0px" width="400px"
	 height="400px" viewBox="0 0 400 400" style="enable-background:new 0 0 400 400;" xml:space="preserve">
<g id="Layer_2">
	<g>
		<g id="XMLID_4175_">
			<path id="XMLID_4179_" style="fill:#C6A366;" d="M113.0485,298.4155c-3.04,3.04001-3.04,8.0145,0,11.0545
				s8.0143,3.04001,11.0543,0l58.1588-58.1588l-11.0545-11.0544L113.0485,298.4155z"/>
			<path id="XMLID_4176_" style="fill:#090907;" d="M219.1357,89.4372c78.51491,37.6983,51.58739,47.0521,51.58739,47.0521
				l-2.15289,2.15269l2.3143,2.31441L260.2822,151.5587l-5.14861,9.0235L182.6528,233.063l-2.1259-2.1259l-5.4059,5.40599
				l11.05429,11.05441l5.40613-5.40591l-2.12601-2.12589l72.48087-72.4808l9.02353-5.1487l10.60229-10.6022l2.26279,2.2628
				l2.15271-2.153l0.05161,0.05159c0,0,9.3537-26.9275,47.05188,51.5872l2.83459-2.8344c0,0-9.3537-26.92751-35.1474-64.0589
				l6.80261-6.8027c0,0-1.41711-5.9523-5.38541-9.3538c-3.4014-3.9683-9.3537-5.3854-9.3537-5.3854l-6.80258,6.8027
				c-37.13141-25.7936-64.05891-35.1473-64.05891-35.1473L219.1357,89.4372z"/>
		</g>
		<g id="XMLID_4168_">
			<path id="XMLID_4172_" style="fill:#C6A366;" d="M287.91528,298.4155c3.04001,3.04001,3.04001,8.0145,0,11.0545
				c-3.03998,3.04001-8.01428,3.04001-11.05429,0l-58.1588-58.1588l11.0545-11.0544L287.91528,298.4155z"/>
			<path id="XMLID_4169_" style="fill:#090907;" d="M181.82809,89.4372c-78.51489,37.6983-51.5874,47.0521-51.5874,47.0521
				l2.15291,2.15269l-2.3143,2.31441l10.60229,10.60229l5.14861,9.0235l72.48079,72.4808l2.1259-2.1259l5.4059,5.40599
				l-11.05429,11.05441l-5.40608-5.40591l2.12601-2.12589l-72.48093-72.4808l-9.0235-5.1487l-10.6023-10.6022l-2.26279,2.2628
				l-2.1527-2.153l-0.0516,0.05159c0,0-9.35371-26.9275-47.0519,51.5872l-2.8346-2.8344c0,0,9.35371-26.92751,35.1474-64.0589
				l-6.8026-6.8027c0,0,1.4171-5.9523,5.3854-9.3538c3.4014-3.9683,9.3537-5.3854,9.3537-5.3854l6.8026,6.8027
				c37.13139-25.7936,64.0589-35.1473,64.0589-35.1473L181.82809,89.4372z"/>
		</g>
	</g>
</g>
<g id="Layer_3" style="display:none;">
	
		<path id="XMLID_24_" style="display:inline;fill:#F2FEFF;stroke:#683614;stroke-width:4;stroke-linecap:square;stroke-linejoin:round;stroke-miterlimit:10;" d="
		M196.88669,237.88519l65.61612-34.59299c-1.57339-7.00171-4.12372-11.81461-6.94221-15.12361
		c0.02161,0.10921,0.03371,0.1725,0.03371,0.1725c-6.91371-0.7923-11.74301-3.63589-15.10901-7.38069
		c-0.04559,0.00299-0.07179,0.0052-0.07179,0.0052c0-0.03001-0.00171-0.06001-0.0018-0.09001
		c-6.0961-6.8508-7.3439-16.66789-7.4938-22.4921c-0.062-2.4064-0.69659-4.765-1.8707-6.86639l-0.0087-0.0157
		c-0.78801,0.06619-0.8085,2.2422-1.8403,2.2995l-46.3833,57.959L196.88669,237.88519z"/>
	
		<path id="XMLID_22_" style="display:inline;fill:#AFC4D8;stroke:#683614;stroke-width:4;stroke-linecap:square;stroke-linejoin:round;stroke-miterlimit:10;" d="
		M158.04759,274.04581c0,0-36.38599-5.9469-50.89279-40.17851l13.6181-8.7851l37.5388,25.9317L158.04759,274.04581z"/>
	
		<path id="XMLID_20_" style="display:inline;fill:#C0D4EA;stroke:#683614;stroke-width:4;stroke-linecap:square;stroke-linejoin:round;stroke-miterlimit:10;" d="
		M174.1189,235.2066c0,0,18.2869,38.18271,47.5446,47.54459c0,0-17.41071,13.39291-26.7856,9.375
		c0,0-14.73221-18.75-36.83031-18.08038c0,0-12.0537-10.7142-12.7233-23.43741L174.1189,235.2066z"/>
	
		<path id="XMLID_18_" style="display:inline;fill:#A9BACE;stroke:#683614;stroke-width:4;stroke-linecap:square;stroke-linejoin:round;stroke-miterlimit:10;" d="
		M231.0385,151.5014c0,0-16.7346,35.93309-38.1696,50.2231c-4.0179,2.6786-19.79781,19.40599-19.7162,33.9989l-27.8284,14.88499
		c0,0-23.4374-16.7411-38.16949-16.7411l15.4017-32.81239C122.5565,201.0549,172.77969,117.3496,231.0385,151.5014z"/>
	
		<path id="XMLID_17_" style="display:inline;fill:none;stroke:#683614;stroke-width:4;stroke-linecap:square;stroke-linejoin:round;stroke-miterlimit:10;" d="
		M262.79459,220.9662c0.07782-0.21851,0.11972-0.43291,0.19171-0.6507C262.9212,220.5388,262.85901,220.73759,262.79459,220.9662z"
		/>
	
		<path id="XMLID_15_" style="display:inline;fill:#D1E2F5;stroke:#683614;stroke-width:4;stroke-linecap:square;stroke-linejoin:round;stroke-miterlimit:10;" d="
		M173.14929,235.7233c0,0-1.3703-16.10939,19.71991-33.99629c0,0,21.1868,35.11119,62.7251-13.38591
		c3.15491,4.05931,12.1778,17.44521,7.3902,31.9736c-0.06561,0.2243-0.1243,0.4211-0.18991,0.6523
		c-0.0206,0.0553-0.02759,0.1105-0.04828,0.16571c-0.85602,3.05139-1.66711,6.49969-2.09521,9.82709
		c-0.00339,0.00351-0.00339,0.01041-0.0069,0.0139c-0.2175,1.68791-0.34171,3.3378-0.3175,4.8876
		c0.00342,0.5005,0.03101,0.99071,0.06549,1.467c0,0,0.01041,3.68991-1.24258,9.01601
		c-2.67169,11.32169-11.0697,30.0336-37.48601,36.409c0,0-15.6709-4.43201-29.30179-15.5708
		C183.38029,259.83029,175.27899,249.56129,173.14929,235.7233z"/>
	
		<path id="XMLID_14_" style="display:inline;fill:#55534E;stroke:#683614;stroke-width:4;stroke-linecap:square;stroke-linejoin:round;stroke-miterlimit:10;" d="
		M262.74588,221.1313l0.00592-0.0013c0.01468-0.0527,0.02811-0.1118,0.04279-0.1638
		C262.77469,221.02139,262.7662,221.0757,262.74588,221.1313z"/>
	
		<path id="XMLID_12_" style="display:inline;fill:#E4F1FF;stroke:#683614;stroke-width:4;stroke-linecap:square;stroke-linejoin:round;stroke-miterlimit:10;" d="
		M192.2616,267.08929c44.81059,8.78812,67.9339-35.2527,68.3826-36.1156c0.00351-0.00349,0.00351-0.00349,0.0069-0.00699
		c-0.08966,1.6776-0.2002,3.30679-0.3244,4.89459c-0.30026,3.75211-0.69727,7.24181-1.17709,10.483
		c-2.67169,11.32169-11.0697,30.0336-37.48601,36.409c0,0-15.6709-4.43201-29.30179-15.5708
		C192.29619,267.12381,192.2616,267.08929,192.2616,267.08929z"/>
	
		<path id="XMLID_11_" style="display:inline;fill:none;stroke:#683614;stroke-width:4;stroke-linecap:square;stroke-linejoin:round;stroke-miterlimit:10;" d="
		M240.4135,180.96561c0,0,0.0262-0.00221,0.07179-0.0052c-0.0251-0.02791-0.0486-0.05681-0.07359-0.08481
		C240.41179,180.90559,240.4135,180.93559,240.4135,180.96561z"/>
	
		<path id="XMLID_10_" style="display:inline;fill:none;stroke:#683614;stroke-width:4;stroke-linecap:square;stroke-linejoin:round;stroke-miterlimit:10;" d="
		M232.2527,153.57919c0.21309,0.38371,0.4482,0.8168,0.7,1.2935c0.0421-0.86879,0.09473-1.3624,0.09473-1.3624
		S232.73279,153.5388,232.2527,153.57919z"/>
	
		<path id="XMLID_1_" style="display:inline;fill:#F2FEFF;stroke:#683614;stroke-width:4;stroke-linecap:square;stroke-linejoin:round;stroke-miterlimit:10;" d="
		M192.8692,201.72701c0,0-24.1969-38.9151-57.85361-17.87541c0,0-19.76379,24.22421-27.86079,50.0157
		c0,0,14.0205-1.05389,38.16949,16.7411l27.825-14.8851L192.8692,201.72701z"/>
</g>
<g id="Layer_1">
	<path id="XMLID_4165_" style="fill:#CACCED;" d="M196.88669,237.88519l65.61612-34.59299
		c-1.57339-7.00171-4.12372-11.81461-6.94221-15.12361c0.02161,0.10921,0.03371,0.1725,0.03371,0.1725
		c-6.91371-0.7923-11.74301-3.63589-15.10901-7.38069c-0.04559,0.00299-0.07179,0.0052-0.07179,0.0052
		c0-0.03001-0.00171-0.06001-0.0018-0.09001c-6.0961-6.8508-7.3439-16.66789-7.4938-22.4921
		c-0.062-2.4064-0.69659-4.765-1.8707-6.86639l-0.0087-0.0157c-0.78801,0.06619-0.8085,2.2422-1.8403,2.2995l-46.3833,57.959
		L196.88669,237.88519z"/>
	<path id="XMLID_4162_" style="fill:#473121;" d="M158.04759,274.04581c0,0-36.38599-5.9469-50.89279-40.17851l13.6181-8.7851
		l37.5388,25.9317L158.04759,274.04581z"/>
	<path id="XMLID_4159_" style="fill:#633A26;" d="M174.1189,235.2066c0,0,18.2869,38.18271,47.5446,47.54459
		c0,0-17.41071,13.39291-26.7856,9.375c0,0-14.73221-18.75-36.83031-18.08038c0,0-12.0537-10.7142-12.7233-23.43741
		L174.1189,235.2066z"/>
	<path id="XMLID_4156_" style="fill:#6D81BF;" d="M231.0385,151.5014c0,0-16.7346,35.93309-38.1696,50.2231
		c-4.0179,2.6786-19.79781,19.40599-19.7162,33.9989l-27.8284,14.88499c0,0-23.4374-16.7411-38.16949-16.7411l15.4017-32.81239
		C122.5565,201.0549,172.77969,117.3496,231.0385,151.5014z"/>
	<path id="XMLID_4155_" style="fill:none;" d="M262.79459,220.9662c0.07782-0.21851,0.11972-0.43291,0.19171-0.6507
		C262.9212,220.5388,262.85901,220.73759,262.79459,220.9662z"/>
	<path id="XMLID_4152_" style="fill:#AEA5CC;" d="M173.22179,236.31071c0,0-1.55098-16.09302,19.33719-34.21544
		c0,0,21.57944,34.87126,62.57095-14.08888c3.20024,4.02365,12.37279,17.30746,7.74849,31.88867
		c-0.06308,0.22502-0.11957,0.42247-0.18256,0.65439c-0.01999,0.05553-0.02637,0.11079-0.04645,0.16623
		c-0.82169,3.06081-1.59406,6.51801-1.9848,9.84999c-0.00336,0.00354-0.00327,0.01044-0.00674,0.01398
		c-0.19855,1.69023-0.3042,3.34143-0.26263,4.89085c0.00903,0.50043,0.04211,0.9903,0.08197,1.46617
		c0,0,0.05179,3.68956-1.14136,9.02937c-2.54449,11.35097-10.73201,30.15593-37.0751,36.82735
		c0,0-15.71965-4.25589-29.47467-15.24106C183.72264,260.30139,175.50662,250.12395,173.22179,236.31071z"/>
	<path id="XMLID_4151_" style="fill:#55534E;" d="M262.74588,221.1313l0.00592-0.0013c0.01468-0.0527,0.02811-0.1118,0.04279-0.1638
		C262.77469,221.02139,262.7662,221.0757,262.74588,221.1313z"/>
	<path id="XMLID_3633_" style="fill:#966538;" d="M192.2616,267.08929c44.81059,8.78812,67.9339-35.2527,68.3826-36.1156
		c0.00351-0.00349,0.00351-0.00349,0.0069-0.00699c-0.08966,1.6776-0.2002,3.30679-0.3244,4.89459
		c-0.30026,3.75211-0.69727,7.24181-1.17709,10.483c-2.67169,11.32169-11.0697,30.0336-37.48601,36.409
		c0,0-15.6709-4.43201-29.30179-15.5708C192.29619,267.12381,192.2616,267.08929,192.2616,267.08929z"/>
	<path id="XMLID_3631_" style="fill:none;" d="M240.4135,180.96561c0,0,0.0262-0.00221,0.07179-0.0052
		c-0.0251-0.02791-0.0486-0.05681-0.07359-0.08481C240.41179,180.90559,240.4135,180.93559,240.4135,180.96561z"/>
	<path id="XMLID_3630_" style="fill:none;" d="M232.2527,153.57919c0.21309,0.38371,0.4482,0.8168,0.7,1.2935
		c0.0421-0.86879,0.09473-1.3624,0.09473-1.3624S232.73279,153.5388,232.2527,153.57919z"/>
	<path id="XMLID_3625_" style="fill:#8492CE;" d="M192.8692,201.72701c0,0-24.1969-38.9151-57.85361-17.87541
		c0,0-19.76379,24.22421-27.86079,50.0157c0,0,14.0205-1.05389,38.16949,16.7411l27.825-14.8851L192.8692,201.72701z"/>
</g>
</svg>
