<svg id="Layer_3" data-name="Layer 3" xmlns="http://www.w3.org/2000/svg" viewBox="0 0 221.03488 253.63968"><title>license</title><path d="M254.83663,73.18015h-118.774V299.29453h174.4544V128.6506Zm0,0" transform="translate(-89.48217 -73.18015)" style="fill:#fcfcfd"/><path d="M254.83663,128.6506h55.68042L254.83663,73.18015Zm0,0" transform="translate(-89.48217 -73.18015)" style="fill:#e2e2e2"/><rect x="74.95025" y="42.34547" width="72.8304" height="13.12496" style="fill:#f1f3f7"/><rect x="74.95025" y="76.85548" width="118.13633" height="13.12496" style="fill:#f1f3f7"/><rect x="74.95025" y="111.36547" width="118.13633" height="13.12495" style="fill:#f1f3f7"/><rect x="74.95025" y="145.87546" width="118.13633" height="13.12495" style="fill:#f1f3f7"/><rect x="74.95025" y="180.38465" width="118.13633" height="13.12496" style="fill:#f1f3f7"/><path d="M180.94477,326.81983l-30.48571-22.2327-30.27811,22.2327V210.58558h60.76382Zm0,0" transform="translate(-89.48217 -73.18015)" style="fill:#e95342"/><path d="M150.45906,144.743l9.73834-5.50643,7.40855,8.25615,11.009-2.32591,4.44888,10.16139,11.009,1.26832,1.26832,11.00979,10.16528,4.658-2.11908,10.79907,8.04545,7.40854-5.2926,9.74147,5.2926,9.73757-8.04545,7.40932,2.11908,10.79907-10.16528,4.658-1.26832,11.00979-11.009,1.26833L178.615,255.257l-11.009-2.32591-7.40855,8.25615-9.73834-5.50643-9.5276,5.50643-7.62163-8.25615L122.51075,255.257l-4.65882-10.16138-11.00667-1.26833-1.27144-11.00979-9.95143-4.658,2.11908-10.79907-8.2593-7.40932,5.50646-9.73757L89.48217,190.472l8.2593-7.40854-2.11908-10.79907,9.95143-4.658,1.27144-11.00979,11.00667-1.26832,4.65882-10.16139,10.79907,2.32591,7.62163-8.25615Zm0,0" transform="translate(-89.48217 -73.18015)" style="fill:#ff553e"/><path d="M195.13121,201.271a44.67333,44.67333,0,1,1-44.67215-44.67449A44.67216,44.67216,0,0,1,195.13121,201.271Zm0,0" transform="translate(-89.48217 -73.18015)" style="fill:#fbd303"/></svg>