<svg id="Layer_1" data-name="Layer 1" xmlns="http://www.w3.org/2000/svg" viewBox="0 0 274.29993 227.62502"><title>manganese</title><g id="Layer_2" data-name="Layer 2"><g id="_Group_" data-name="&lt;Group&gt;"><g id="_Group_2" data-name="&lt;Group&gt;"><path id="_Path_" data-name="&lt;Path&gt;" d="M112.5,301.1a7.9196,7.9196,0,0,0,11.2,11.2l58.8-58.8-11.2-11.2Z" transform="translate(-63.7 -87)" style="fill:#c6a366"/><path id="_Path_2" data-name="&lt;Path&gt;" d="M219.7,89.9c79.4,38.1,52.2,47.6,52.2,47.6l-2.2,2.2L272,142l-10.7,10.7-5.2,9.1-73.3,73.3-2.1-2.1-5.5,5.5,11.2,11.2,5.5-5.5-2.1-2.1,73.3-73.3,9.1-5.2,10.7-10.7,2.3,2.3,2.2-2.2.1.1s9.5-27.2,47.6,52.2l2.9-2.9s-9.5-27.2-35.5-64.8l6.9-6.9s-1.4-6-5.4-9.5c-3.4-4-9.5-5.4-9.5-5.4l-6.9,6.9C249.8,96.5,222.6,87,222.6,87Z" transform="translate(-63.7 -87)" style="fill:#090907"/></g><g id="_Group_3" data-name="&lt;Group&gt;"><path id="_Path_3" data-name="&lt;Path&gt;" d="M289.2,301.1A7.9196,7.9196,0,0,1,278,312.3l-58.8-58.8,11.2-11.2Z" transform="translate(-63.7 -87)" style="fill:#c6a366"/><path id="_Path_4" data-name="&lt;Path&gt;" d="M182,89.9c-79.4,38.1-52.2,47.6-52.2,47.6l2.2,2.2-2.3,2.3,10.7,10.7,5.2,9.1,73.3,73.3L221,233l5.5,5.5-11.2,11.2-5.5-5.5,2.1-2.1-73.3-73.3-9.1-5.2-10.7-10.7-2.3,2.3-2.2-2.2-.1.1s-9.5-27.2-47.6,52.2l-2.9-2.9s9.5-27.2,35.5-64.8l-6.9-6.9s1.4-6,5.4-9.5c3.4-4,9.5-5.4,9.5-5.4l6.9,6.9c37.8-26.2,65-35.7,65-35.7Z" transform="translate(-63.7 -87)" style="fill:#090907"/></g><g id="_Group_4" data-name="&lt;Group&gt;"><path id="_Path_5" data-name="&lt;Path&gt;" d="M253.3,197.7s19.7,27.5,6.9,59.1l-14.5-3.1-7.5-41.2Z" transform="translate(-63.7 -87)" style="fill:#60758c"/><path id="_Path_6" data-name="&lt;Path&gt;" d="M126.5,229.9s3.5-15.6,13-25.2c0,0-11.9-9.8.2-28.8l65,20.1-7.8,26.1Z" transform="translate(-63.7 -87)" style="fill:#495e70"/><path id="_Path_7" data-name="&lt;Path&gt;" d="M217.7,212.5s12.9-36.6,0-61.7c0,0,20,2.6,23.5,11.3,0,0-2.6,21.7,12.2,35.6,0,0,.9,14.8-6.9,23.5Z" transform="translate(-63.7 -87)" style="fill:#495e70"/><path id="_Path_8" data-name="&lt;Path&gt;" d="M126.5,229.9s34.2-12.5,57.3-7.8c4.3.9,25.4.3,34.8-9.3l27.7,8.4s4.3,26.1,13.9,35.6L229,268.1S142.1,289.8,126.5,229.9Z" transform="translate(-63.7 -87)" style="fill:#254054"/><path id="_Path_9" data-name="&lt;Path&gt;" d="M150.9,164.2a2.18609,2.18609,0,0,0-.5.3A2.18541,2.18541,0,0,0,150.9,164.2Z" transform="translate(-63.7 -87)" style="fill:none"/><path id="_Path_10" data-name="&lt;Path&gt;" d="M217.7,150.8c-31.3-19.1-54.6,4.3-54.6,4.3-2.9,3.4-7.8,6.6-12,9h0l-.1.1a2.18609,2.18609,0,0,0-.5.3c-12.5,6.3-15.4,20.8-15.9,25.5,58.4-4.5,49.4,32,49.4,32,25.3,2.1,34.8-9.3,34.8-9.3C237.8,186.7,217.7,150.8,217.7,150.8Z" transform="translate(-63.7 -87)" style="fill:#60758c"/><path id="_Path_11" data-name="&lt;Path&gt;" d="M151.1,164.1h0l-.1.1Z" transform="translate(-63.7 -87)" style="fill:#55524e"/></g><path d="M245.125,187.875s-4.25,7.5-5.375,8.5c0,.375-18.375,16.125-20.875,16.875,1.75.5,27.625,9.25,27.625,9.25l-.375-.875s-5.375-9.875-4.125-13,5.375-18,5.375-18l-2-3.75Z" transform="translate(-63.7 -87)" style="fill:#9e9e9e"/><path d="M184,222s-20.25-17.375-43.875-17.125c.375-.75,22-12.5,25.625-11.875S186.5,199.25,184,222Z" transform="translate(-63.7 -87)" style="fill:#254054"/><path d="M184.66667,222s19.66667-24.66667,22.16667-45.83333c.5-.33333-25,29.83333-25,29.83333Z" transform="translate(-63.7 -87)" style="fill:#9e9e9e"/><path d="M149.66667,225s18.66667-4.66667,33-2.33333,60.66667,33,75.33333,33.66667C246.66667,259.66667,149.66667,225,149.66667,225Z" transform="translate(-63.7 -87)" style="fill:#495e70"/></g></g><polygon points="102.3 66.667 125.3 73 150.967 77 90.967 76.667 102.3 66.667" style="fill:#495e70"/></svg>