<svg id="Layer_1" data-name="Layer 1" xmlns="http://www.w3.org/2000/svg" viewBox="0 0 22.36264 23"><title>mass</title><g id="Layer_2" data-name="Layer 2"><g id="Layer_1-2" data-name="Layer 1-2"><path d="M22.3,23.5H1.7a1.22037,1.22037,0,0,1-.9-.8v-.5c1.2-4.3,2.4-8.6,3.5-13A1.927,1.927,0,0,1,6.2,7.7H8.6c.1-.1.1-.1.1-.2a4.191,4.191,0,0,1,.6-6A5.559,5.559,0,0,1,11,.6a4.33108,4.33108,0,0,0,.5-.1h1a4.01037,4.01037,0,0,1,3.4,2.7,4.19941,4.19941,0,0,1-.6,4.3l-.1.2h2.4a2.04118,2.04118,0,0,1,2,1.5L21.7,17c.5,1.7.9,3.4,1.4,5.1a1.04026,1.04026,0,0,1-.6,1.3.34912.34912,0,0,1-.2.1ZM9.1,4.8a2.9,2.9,0,1,0,3-2.9,3.0575,3.0575,0,0,0-3,2.9ZM8.3,15.6,11.9,12H10.1c-.1,0-.2.1-.3.1L7.9,14l-.2.2V12H6.3v7.2H7.7V17c.1.1.2.1.2.2L9.7,19a.36737.36737,0,0,0,.3.1h1.8Zm8-3.6H14.8a2.78172,2.78172,0,0,0-2.7,2.3,14.76879,14.76879,0,0,0-.1,2.1,2.908,2.908,0,0,0,5.7.7,8.129,8.129,0,0,0,.1-2.2H14.9v1.4h1.4a1.36707,1.36707,0,0,1-1.4,1.4,1.41516,1.41516,0,0,1-1.4-1.3V14.7a1.4822,1.4822,0,0,1,1.1-1.3c.3,0,.6-.1,1-.1h.8Z" transform="translate(-0.8 -0.5)"/></g></g></svg>