<svg id="Layer_1" data-name="Layer 1" xmlns="http://www.w3.org/2000/svg" viewBox="0 0 23.2 22.1"><title>math</title><g id="Layer_2" data-name="Layer 2"><g id="Layer_1-2" data-name="Layer 1-2"><path d="M7.7,4.4H7.4a7.51876,7.51876,0,0,0-1.5,0,4.5519,4.5519,0,0,0-2,.5A3.25182,3.25182,0,0,0,2.3,6.1c-.2.4-.4.7-.6,1.1-.1.2-.2.3-.3.5H1.3a2.20185,2.20185,0,0,1-.8-.1h0c.4-.9.7-1.9,1.1-2.8a10.09221,10.09221,0,0,1,.7-1.5A3.75954,3.75954,0,0,1,3.7,1.9,5.02339,5.02339,0,0,1,5,1.4l1.5-.3c.7,0,1.3-.1,2-.1C10.1.9,11.7.9,13.4.9H23.5V4.4H18V6c0,.5-.1,1-.1,1.5s-.1,1-.1,1.4c0,.5-.1,1-.1,1.5s-.1,1-.1,1.4c0,.5-.1,1-.1,1.4a11.29481,11.29481,0,0,0,0,2.6,4.52924,4.52924,0,0,0,.3,1.6,4.67107,4.67107,0,0,0,.5,1,2.223,2.223,0,0,0,1.3.8,2.917,2.917,0,0,0,1.6-.1,2.211,2.211,0,0,0,1.3-1.2,2.66263,2.66263,0,0,0,.3-1.2v-.3h.9v.4a9.474,9.474,0,0,1-.7,2.9,6.15044,6.15044,0,0,1-1.2,1.9A4.39428,4.39428,0,0,1,20,22.8a3.88687,3.88687,0,0,1-1.5.2,5.07924,5.07924,0,0,1-1.7-.3,3.57179,3.57179,0,0,1-2.1-1.9,4.7956,4.7956,0,0,1-.5-1.7,7.56865,7.56865,0,0,1-.1-1.5,7.56865,7.56865,0,0,1,.1-1.5,7.56865,7.56865,0,0,0,.1-1.5c0-.5.1-1,.1-1.5s.1-1,.1-1.5.1-.9.1-1.4.1-.9.1-1.4c0-.4.1-.9.1-1.3s.1-.9.1-1.3S15,5.4,15,5V4.4H9.8v.2c0,.5-.1,1-.1,1.4s-.1.9-.1,1.3-.1.9-.1,1.3-.1.9-.1,1.3-.1.9-.1,1.3-.1.8-.1,1.1c0,.4-.1.8-.1,1.2s-.1.8-.1,1.2c-.1.5-.1.9-.2,1.4s-.1,1-.2,1.5a12.75946,12.75946,0,0,1-.7,2.8,6.10945,6.10945,0,0,1-.7,1.4,2.65391,2.65391,0,0,1-1.9,1.1,2.55816,2.55816,0,0,1-2.4-1,1.845,1.845,0,0,1-.5-1.2,1.09543,1.09543,0,0,1,0-.8,3.55207,3.55207,0,0,1,.4-.9c.3-.4.6-.9.9-1.3.6-.8,1.1-1.6,1.6-2.4a14.76253,14.76253,0,0,0,1.2-2.9,26.80754,26.80754,0,0,0,.7-2.7c.1-.6.2-1.2.3-1.9.1-.6.1-1.2.2-1.8a4.15688,4.15688,0,0,1,0-1.6Z" transform="translate(-0.5 -0.9)"/></g></g></svg>