<svg id="Layer_1" data-name="Layer 1" xmlns="http://www.w3.org/2000/svg" viewBox="0 0 23 23"><title>metric</title><g id="Layer_2" data-name="Layer 2"><g id="Layer_1-2" data-name="Layer 1-2"><path d="M1.5,13h21a1.00209,1.00209,0,0,0,1-1,1.0714,1.0714,0,0,0-1-1H1.5a1.00209,1.00209,0,0,0-1,1A1.0714,1.0714,0,0,0,1.5,13Z" transform="translate(-0.5 -0.5)"/><path d="M11,1.5v21a1.00209,1.00209,0,0,0,1,1,1.0714,1.0714,0,0,0,1-1V1.5a1.00209,1.00209,0,0,0-1-1A1.0714,1.0714,0,0,0,11,1.5Z" transform="translate(-0.5 -0.5)"/><path d="M12,19.1A7.1,7.1,0,1,1,19.1,12,7.12735,7.12735,0,0,1,12,19.1ZM12,6.9A5.1,5.1,0,1,0,17.1,12,5.12147,5.12147,0,0,0,12,6.9Z" transform="translate(-0.5 -0.5)"/></g></g></svg>