<svg id="Layer_1" data-name="Layer 1" xmlns="http://www.w3.org/2000/svg" viewBox="0 0 396.80096 397.44205">
  <title>mountain</title>
  <g>
    <path d="M693.961,689.84l-110.723,9.601L473.16,689.84,583.238,472.879Zm0,0" transform="translate(-301 -302)" style="fill: #1589ad"/>
    <polyline points="282.238 170.879 392.961 387.84 282.238 397.441" style="fill: #035670"/>
    <path d="M583.238,660.398l63.364-63.359-35.84-69.758-27.524-27.519-27.519,27.519L520.52,597.039Zm0,0" transform="translate(-301 -302)" style="fill: #1ea4c4"/>
    <polyline points="282.238 358.398 345.602 295.039 309.762 225.281 282.238 197.762" style="fill: #066b93"/>
    <path d="M630.602,685.359,468.039,699.441l-164.48-10.882L468.039,366Zm0,0" transform="translate(-301 -302)" style="fill: #1589ad"/>
    <polyline points="167.039 64 331.52 386.559 167.039 397.441" style="fill: #057091"/>
    <path d="M468.039,641.84l92.801-93.442L508.359,445.359l-40.32-40.32-40.961,40.32L374.602,548.398Zm0,0" transform="translate(-301 -302)" style="fill: #1ea4c4"/>
    <polyline points="167.039 339.84 259.84 246.398 207.359 143.359 167.039 103.039" style="fill: #1290ad"/>
    <path d="M494.281,524.719l26.239,26.242,27.519-26.883L468.039,366,387.398,524.078l27.524,26.883,26.238-26.242,26.879,26.242Zm0,0" transform="translate(-301 -302)" style="fill: #9adfef"/>
    <polyline points="167.039 248.961 193.281 222.719 219.52 248.961 247.039 222.078 167.039 64" style="fill: #7dd4e2"/>
    <path d="M477,310.961A8.961,8.961,0,1,1,468.039,302,8.961,8.961,0,0,1,477,310.961Zm0,0" transform="translate(-301 -302)" style="fill: #c92b00"/>
    <path d="M467.398,325.039c-1.918,0-1.918,0-6.398-1.277v59.519c0,2.559,3.84,4.481,6.398,4.481,2.563,0,6.403-1.922,6.403-4.481V323.762c0,2.558-4.481,1.277-6.403,1.277Zm0,0" transform="translate(-301 -302)" style="fill: #1ea4c4"/>
    <path d="M467.398,387.762c2.563,0,6.403-1.922,6.403-4.481V323.762a13.95079,13.95079,0,0,1-6.403,1.277" transform="translate(-301 -302)" style="fill: #087799"/>
    <path d="M473.801,305.199c3.84,3.199,3.84,8.961,0,12.801s-8.961,3.84-12.801,0" transform="translate(-301 -302)" style="fill: #9e1600"/>
    <path d="M463.16,305.375c1.5-1.5,3.121-2.309,3.621-1.809s-.312,2.121-1.812,3.621-3.121,2.309-3.621,1.809.312-2.121,1.812-3.621Zm0,0" transform="translate(-301 -302)" style="fill: #e28133"/>
    <path d="M560.199,353.84l11.52-12.801H499.398v25.602h72.321Zm0,0" transform="translate(-301 -302)" style="fill: #9e1600"/>
    <polyline points="270.719 64.641 259.199 51.84 270.719 39.039 198.398 39.039" style="fill: #770b00"/>
    <rect x="172.80098" y="26.23801" width="51.19899" height="19.203" style="fill: #c92b00"/>
    <polyline points="172.801 26.238 224 26.238 224 45.441" style="fill: #9e1600"/>
    <rect y="384.64102" width="396.80096" height="12.80103" style="fill: #057091"/>
  </g>
</svg>
