<?xml version="1.0" encoding="utf-8"?>
<!-- Generator: Adobe Illustrator 21.0.0, SVG Export Plug-In . SVG Version: 6.00 Build 0)  -->
<svg version="1.1" id="Capa_1" xmlns="http://www.w3.org/2000/svg" xmlns:xlink="http://www.w3.org/1999/xlink" x="0px" y="0px"
	 viewBox="0 0 60 60" style="enable-background:new 0 0 60 60;" xml:space="preserve">
<style type="text/css">
	.st0{fill:#AFAFAF;}
	.st1{font-family:'Roboto-Bold';}
	.st2{font-size:21px;}
</style>
<g>
	<path class="st0" d="M51,21.7c-0.5-9-7.9-16.2-16.9-16.2c-5.4,0-10.7,2.7-13.9,7c-0.1,0-0.2-0.1-0.2-0.1c-0.2-0.1-0.4-0.2-0.6-0.3
		c-0.1,0-0.2-0.1-0.4-0.1c-0.2-0.1-0.4-0.1-0.6-0.2c-0.1,0-0.2-0.1-0.4-0.1c-0.2-0.1-0.4-0.1-0.7-0.1c-0.1,0-0.2,0-0.3,0
		c-0.3,0-0.7-0.1-1-0.1c-5,0-9,4-9,9c0,0.1,0,0.3,0,0.4c-4.2,2.3-7,7-7,11.8c0,7.1,5.8,12.8,12.8,12.8h6.3l-5.3,9h32.3l-5.3-9H48
		c6.6,0,12-5.4,12-12C60,28,56.2,23.1,51,21.7z M42.7,52.5H17.3l4.1-7h0L30,30.8l8.6,14.7h0L42.7,52.5z M48,43.5h-8.2L30,26.9
		l-9.7,16.6h-7.4C6.9,43.5,2,38.6,2,32.7c0-4.2,2.7-8.5,6.4-10.3L9,22.1v-0.6c0-0.1,0-0.2,0-0.4L9,21l0-0.2c0-0.1,0-0.2,0-0.3
		c0-3.9,3.1-7,7-7c0.3,0,0.6,0,0.9,0.1c0.1,0,0.2,0,0.2,0c0.3,0,0.5,0.1,0.8,0.2c0,0,0.1,0,0.1,0c0.3,0.1,0.6,0.2,0.8,0.3
		c0.1,0,0.1,0.1,0.2,0.1c0.2,0.1,0.5,0.3,0.7,0.4c1.9,1.2,3.2,3.4,3.2,5.9c0,0.6,0.4,1,1,1s1-0.4,1-1c0-2.8-1.2-5.2-3.2-6.9
		c2.9-3.8,7.6-6.1,12.3-6.1c7.7,0,14.2,6.1,14.8,13.9c-1-0.1-2.6-0.1-4.1,0.1c-0.5,0.1-0.9,0.6-0.8,1.1c0.1,0.5,0.5,0.9,1,0.9
		c0,0,0.1,0,0.2,0c2.2-0.3,4.5,0,4.7,0c4.7,0.9,8.2,5.2,8.2,10C58,39,53.5,43.5,48,43.5z"/>
</g>
<text transform="matrix(1 0 0 1 27.3125 51)" class="st0 st1 st2">!</text>
</svg>
