<?xml version="1.0" encoding="utf-8"?>
<!-- Generator: Adobe Illustrator 21.0.0, SVG Export Plug-In . SVG Version: 6.00 Build 0)  -->
<svg version="1.1" id="Layer_1" xmlns="http://www.w3.org/2000/svg" xmlns:xlink="http://www.w3.org/1999/xlink" x="0px" y="0px"
	 width="400px" height="400px" viewBox="0 0 400 400" style="enable-background:new 0 0 400 400;" xml:space="preserve">
<g id="Layer_4" style="display:none;">
	<g id="XMLID_10725_" style="display:inline;">
		<g id="XMLID_10795_">
			<g id="XMLID_10816_">
				<g id="XMLID_10817_">
					<path id="XMLID_10818_" style="fill:#4C4F4E;" d="M122.04556,115.68219l-6.62652-4.2987l-21.96613,14.25014
						c-2.14162,1.39095-3.31784,3.23605-3.31784,5.19685v14.60797h9.37225v-14.60797c0-0.33844,0.20365-0.65897,0.57444-0.89952
						L122.04556,115.68219z"/>
				</g>
			</g>
			<g id="XMLID_10813_">
				<g id="XMLID_10814_">
					<path id="XMLID_10815_" style="fill:#DB4826;" d="M82.84162,191.03944v-31.16031h-2.33457
						c-3.15438,0-5.71151,2.55713-5.71151,5.7115v19.7373c0,3.15437,2.55713,5.7115,5.71151,5.7115H82.84162z"/>
				</g>
			</g>
			<g id="XMLID_10810_">
				<g id="XMLID_10811_">
					<path id="XMLID_10812_" style="fill:none;" d="M123.70412,183.78853c4.30515,0.45932,7.41328,2.5282,7.41328,4.93437v12.27335
						c0,1.77773-1.71159,3.42329-4.50111,4.32759l-1.31167,0.42526c-2.01978,0.6548-4.26954,0.99718-6.55373,0.99718h-2.17814
						v-23.71854L123.70412,183.78853z"/>
				</g>
			</g>
			<g id="XMLID_10807_">
				<g id="XMLID_10808_">
					<path id="XMLID_10809_" style="fill:#DB4826;" d="M97.07679,213.83969l-11.05119-4.42487
						c-1.9865-0.79547-3.18398-2.15321-3.18398-3.60916v-49.57175c0-1.89754,2.02169-3.57181,4.97913-4.12296l14.00088-2.60962
						v64.33835H97.07679z"/>
				</g>
			</g>
			<g id="XMLID_10802_">
				<g id="XMLID_10803_">
					<path id="XMLID_10804_" style="fill:#CC2C1B;" d="M101.82162,213.83969h14.12373l3.89944-2.43848
						c2.47933-1.55035,4.00033-4.37128,4.00033-7.41899v-21.03967c0-4.12514-2.76241-7.67171-6.58857-8.45909l-6.33826-1.30421
						V152.3898c0-2.89212-2.63897-4.96303-5.25411-4.12291l-3.84256,1.23445L101.82162,213.83969z M110.37978,206.74628v-23.71854
						l4.13726,0.76079c2.4978,0.45932,4.30103,2.5282,4.30103,4.93437v12.27335c0,1.77773-0.99306,3.42329-2.61137,4.32759
						l-0.76106,0.42526c-1.17171,0.6548-2.477,0.99718-3.80224,0.99718H110.37978z"/>
				</g>
			</g>
			<g id="XMLID_10799_">
				<g id="XMLID_10800_">
					<rect id="XMLID_10801_" x="97.0768" y="213.83969" style="fill:#4C4F4E;" width="13.82246" height="3.67336"/>
				</g>
			</g>
			<g id="XMLID_10796_">
				<g id="XMLID_10797_">
					<rect id="XMLID_10798_" x="87.82074" y="145.4389" style="fill:#DB4826;" width="14.00089" height="11.40012"/>
				</g>
			</g>
		</g>
		<g id="XMLID_10793_">
			<path id="XMLID_10794_" style="fill:#DB4826;" d="M308.96179,350.15613H122.78085V111.75146
				C122.78085,88.14048,141.92134,69,165.53232,69h100.6781c23.61093,0,42.75137,19.14045,42.75137,42.7514V350.15613z"/>
		</g>
		<g id="XMLID_10756_">
			<rect id="XMLID_10757_" x="107.72452" y="350.15613" style="fill:#636F72;" width="219.31943" height="22.84387"/>
		</g>
		<g id="XMLID_10753_" style="opacity:0.15;">
			<g id="XMLID_10754_">
				<path id="XMLID_10755_" style="fill:#0A0707;" d="M126.19666,350.15613h182.76532V126.97011
					c0-4.75429-1.02017-9.35014-2.75372-13.77192C259.29428,175.44696,173.26387,288.41122,126.19666,350.15613z"/>
			</g>
		</g>
		<g id="XMLID_10751_">
			<path id="XMLID_10752_" style="fill:#D6CCCC;" d="M250.61928,225.51994h-67.41736c-4.80516,0-8.7005-3.89536-8.7005-8.7005
				v-84.04715c0-4.80521,3.89539-8.70061,8.70059-8.70061h67.41727c4.80521,0,8.70061,3.89539,8.70061,8.70061v84.04704
				C259.31989,221.62454,255.42448,225.51994,250.61928,225.51994z"/>
		</g>
		<g id="XMLID_10747_">
			<path id="XMLID_10748_" style="fill:#CC2C1B;" d="M250.78395,228.41785h-67.74672c-6.36707,0-11.54739-4.98558-11.54739-11.11366
				v-85.01598c0-6.12913,5.18033-11.1149,11.54739-11.1149h67.74673c6.3671,0,11.54742,4.98577,11.54742,11.1149v85.01599
				C262.33136,223.43227,257.15106,228.41785,250.78395,228.41785z M183.03722,126.96913
				c-3.04604,0-5.52467,2.38712-5.52467,5.31908v85.01599c0,2.93208,2.47864,5.31784,5.52467,5.31784h67.74672
				c3.04605,0,5.52481-2.38576,5.52481-5.31784v-85.01599c0-2.93196-2.47874-5.31908-5.5248-5.31908H183.03722z"/>
		</g>
		<g id="XMLID_10745_">
			<rect id="XMLID_10746_" x="187.8714" y="139.66939" style="fill:#FFCE00;" width="57.07477" height="15.94185"/>
		</g>
		<g id="XMLID_10743_">
			<rect id="XMLID_10744_" x="187.8714" y="169.37915" style="fill:#FFCE00;" width="57.07477" height="15.94197"/>
		</g>
		<g id="XMLID_10739_">
			<path id="XMLID_10740_" style="fill:#4C4F4E;" d="M246.45135,157.06026h-60.08548V138.2193h60.08548V157.06026z
				 M189.37642,154.161h54.06424v-13.04251h-54.06424V154.161z"/>
		</g>
		<g id="XMLID_10735_">
			<path id="XMLID_10736_" style="fill:#4C4F4E;" d="M246.45135,186.77069h-60.08548v-18.84097h60.08548V186.77069z
				 M189.37642,183.87131h54.06424V170.8288h-54.06424V183.87131z"/>
		</g>
		<g id="XMLID_10733_">
			<path id="XMLID_10734_" style="fill:#4C4F4E;" d="M109.45352,342.92737H92.37651c-7.44955,0-13.51049-5.83383-13.51049-13.00439
				v-51.16418c0-7.17053,6.06094-13.00314,13.51049-13.00314c4.20978,0,7.56903-3.23404,7.56903-7.20856v-41.03412h6.02264v41.03412
				c0,7.17053-6.06094,13.0043-13.51119,13.0043c-4.20908,0-7.56825,3.23404-7.56825,7.2074v51.16418
				c0,3.97464,3.35917,7.20865,7.48777,7.20865h17.07701c4.12863,0,7.48788-3.23401,7.48788-7.20865v-41.34262h6.02261v41.34262
				C122.96401,337.09354,116.90311,342.92737,109.45352,342.92737z"/>
		</g>
		<g id="XMLID_10731_">
			<path id="XMLID_10732_" style="fill:#DB4826;" d="M145.61076,295.46463h-15.94978c-7.65997,0-13.92736-6.03244-13.92736-13.4057
				l0,0c0-7.37292,6.26739-13.40567,13.92736-13.40567h15.94978c7.65996,0,13.92715,6.03275,13.92715,13.40567l0,0
				C159.53792,289.43219,153.27072,295.46463,145.61076,295.46463z"/>
		</g>
	</g>
</g>
<g id="Layer_2">
	<g>
		<path style="fill:#F44236;" d="M131.38707,35h137.62511c13.83347,0,25.1478,11.31482,25.1478,25.14827v276.1814h-187.9207
			V60.14827C106.23927,46.31482,117.55843,35,131.38707,35L131.38707,35z"/>
		<path style="fill:#D61818;" d="M200.19986,35h68.81232c13.83347,0,25.1478,11.31482,25.1478,25.14827v276.1814h-93.96011V35
			L200.19986,35z"/>
		<path style="fill:#FFC207;" d="M145.84796,65.94478h108.70822c6.72571,0,12.22528,5.50382,12.22528,12.22471v64.14788
			c0,6.72089-5.49957,12.2252-12.22528,12.2252H145.84796c-6.72578,0-12.22527-5.50432-12.22527-12.2252V78.16949
			C133.6227,71.4486,139.12218,65.94478,145.84796,65.94478L145.84796,65.94478z"/>
		<path style="fill:#FFA906;" d="M200.19986,65.94478h54.35197c6.73006,0,12.22963,5.49899,12.22963,12.22954v64.13388
			c0,6.73489-5.49957,12.23438-12.22963,12.23438h-54.35197V65.94478L200.19986,65.94478z"/>
		<path style="fill:#4D5F73;" d="M178.22609,235.76408c2.19748-4.31091,20.224-36.1564,21.92644-40.37267
			c1.28275,4.17424,19.78065,35.97192,22.0211,40.37267c1.98062,3.86755,2.87218,7.75829,2.87218,11.47034
			c0,4.56059-1.34891,8.843-3.69321,12.49373c-2.32014,3.62704-5.62167,6.61703-9.55055,8.62134
			c-3.46187,1.76907-7.41435,2.77365-11.60219,2.77365c-4.17906,0-8.12679-1.0094-11.60266-2.78284
			c-3.93806-2.00912-7.23476-4.9996-9.5553-8.61215c-2.33955-3.65073-3.68362-7.9283-3.68362-12.48938
			c0-3.70239,0.89154-7.59312,2.87224-11.47034L178.22609,235.76408L178.22609,235.76408z"/>
		<path style="fill:#2C3D4F;" d="M200.19986,195.53777c1.63193,4.69728,19.75215,35.87291,21.97377,40.22632
			c1.98062,3.8719,2.86734,7.76312,2.86734,11.47034c0,4.56059-1.34407,8.84785-3.68353,12.49373
			c-2.32498,3.62704-5.62651,6.61703-9.55539,8.62134c-3.46187,1.76907-7.40952,2.77365-11.60219,2.77365V195.53777
			L200.19986,195.53777z"/>
		<path style="fill:#1CBEC1;" d="M111.04522,350.4838h178.30881c2.64615,0,4.80594-2.16028,4.80594-4.80594V315.6647h-187.9207
			v30.01315C106.23927,348.32352,108.39915,350.4838,111.04522,350.4838L111.04522,350.4838z"/>
		<path style="fill:#0EA3A7;" d="M200.20421,350.4838h89.14983c2.64615,0,4.80594-2.15546,4.80594-4.80594V315.6647h-93.95575
			v34.81909H200.20421z"/>
		<path style="fill:#7E8796;" d="M310.40823,83.44246c12.23438,7.06524,23.23767,17.03114,31.17563,31.17563
			c9.44672,16.83748,12.62125,35.46288,12.62125,54.75766v126.06013c0,7.04639-2.88184,13.45627-7.5231,18.09219
			c-4.63586,4.63403-11.04099,7.51587-18.09222,7.51587c-7.01788,0-13.41327-2.87701-18.05887-7.51587l-0.01883-0.01398
			l-0.01401-0.00967c-4.63644-4.65479-7.51828-11.04581-7.51828-18.06854V174.35123l0.03287-0.58922
			c0-0.01889,0.87753-8.39049-9.01303-8.39049V149.4536c25.39795,0,25.09137,21.71877,24.89334,25.05844v120.92384
			c0,2.68381,1.08466,5.10345,2.82532,6.84839l0.02841,0.02365c1.74011,1.74011,4.16458,2.82535,6.84308,2.82535
			c2.66016,0,5.08463-1.09439,6.84357-2.849c1.75943-1.76382,2.85382-4.19312,2.85382-6.84839V169.37575
			c0-7.58876-0.57568-14.49367-1.65076-20.78085c-2.0661,0.82538-4.31573,1.2784-6.67395,1.2784
			c-4.98038,0-9.49896-2.02361-12.76718-5.28697c-3.26868-3.27351-5.29181-7.79161-5.29181-12.76756
			c0-4.976,2.02313-9.48922,5.29181-12.7579v-0.01401c1.65512-1.65081,3.62656-2.98566,5.81534-3.89605
			c-5.77283-7.72062-12.83807-13.54561-20.49301-17.96954L310.40823,83.44246L310.40823,83.44246z M335.33002,142.20918
			c-1.81595-7.56511-4.41476-14.13048-7.6076-19.81831c-0.34436-0.60853-0.69354-1.20741-1.04272-1.7971
			c-1.91013,0.55637-3.61737,1.58942-4.98514,2.95234l-0.00482-0.00483c-2.10812,2.11778-3.41452,5.04212-3.41452,8.27747
			c0,3.231,1.31122,6.15486,3.41934,8.26781c2.11298,2.10814,5.04211,3.41937,8.26791,3.41937
			C331.90097,143.50594,333.72607,143.0394,335.33002,142.20918L335.33002,142.20918z"/>
	</g>
</g>
</svg>
