<?xml version="1.0" encoding="utf-8"?>
<!-- Generator: Adobe Illustrator 21.0.0, SVG Export Plug-In . SVG Version: 6.00 Build 0)  -->
<svg version="1.1" id="Layer_2_1_" xmlns="http://www.w3.org/2000/svg" xmlns:xlink="http://www.w3.org/1999/xlink" x="0px" y="0px"
	 viewBox="0 0 400 400" style="enable-background:new 0 0 400 400;" xml:space="preserve">
<style type="text/css">
	.st0{fill:#CD2A00;}
	.st1{fill:#D8D7DA;}
	.st2{fill:#FF3501;}
	.st3{fill:#FFFFFF;}
</style>
<g id="Layer_4_2_">
	<g>
		<path class="st0" d="M200.3,44v66.8c28.2,0,51.2,22.9,51.2,51.2c0,28.2-23,51.2-51.2,51.2V355L294,237.3
			c16.8-21.3,25.7-46.8,25.7-73.9C319.7,97.5,266.1,44,200.3,44L200.3,44z"/>
		<path class="st1" d="M251.5,161.9c0-28.2-23-51.2-51.2-51.2v102.3C228.5,213.1,251.5,190.2,251.5,161.9L251.5,161.9z"/>
		<path class="st2" d="M149.1,161.9c0-28.2,23-51.2,51.2-51.2V44C134.5,44,80.9,97.5,80.9,163.4c0,27.1,8.9,52.7,25.7,74L200.3,355
			V213.1C172.1,213.1,149.1,190.2,149.1,161.9L149.1,161.9z"/>
		<path class="st3" d="M149.1,161.9c0,28.2,23,51.2,51.2,51.2V110.8C172.1,110.8,149.1,133.7,149.1,161.9L149.1,161.9z"/>
	</g>
</g>
</svg>
