<svg id="Layer_1" data-name="Layer 1" xmlns="http://www.w3.org/2000/svg" viewBox="0 0 22.5 23.00096"><title>polar</title><g id="Layer_2" data-name="Layer 2"><g id="Layer_1-2" data-name="Layer 1-2"><path d="M.8,1.5v21a1.00209,1.00209,0,0,0,1,1,1.0714,1.0714,0,0,0,1-1V1.5a1,1,0,1,0-2,0Z" transform="translate(-0.8 -0.5)"/><path d="M1.8,23.4H22.3a1.00209,1.00209,0,0,0,1-1,1.0714,1.0714,0,0,0-1-1H1.8a1,1,0,0,0,0,2Z" transform="translate(-0.8 -0.5)"/><path d="M2.3,23.3,10,17.4c1-.8,0-2.5-1-1.7L1.3,21.6C.3,22.3,1.3,24.1,2.3,23.3Z" transform="translate(-0.8 -0.5)"/></g></g></svg>