<svg id="Layer_1" data-name="Layer 1" xmlns="http://www.w3.org/2000/svg" viewBox="0 0 22.23624 22.92313"><title>primary</title><g id="Layer_2" data-name="Layer 2"><g id="Layer_1-2" data-name="Layer 1-2"><path d="M18.5,4a14.4809,14.4809,0,0,1,1.8,1.7,10.29824,10.29824,0,0,1,2.2,10.6,10.39126,10.39126,0,0,1-8.6,7.1c-4.3.6-7.6-1.2-10.1-4.6a9.82142,9.82142,0,0,1-1.5-8.6A.41926.41926,0,0,0,2,9.6a2.994,2.994,0,0,1-.8-.4.61.61,0,0,1-.3-.7V8.4A.735.735,0,0,1,1.7,8h0a4.87524,4.87524,0,0,1,.7.3c.3.2.5.1.6-.2A10.68786,10.68786,0,0,1,13,2.3a24.99568,24.99568,0,0,1,2.9.5c.1,0,.2.1.4.1.5.1.7-.1.5-.6a2.99409,2.99409,0,0,0-.4-.8.5237.5237,0,0,1,.2-.8h.1a.60524.60524,0,0,1,.8.1.09794.09794,0,0,0,.1.1l.6,1.5c.1.3.2.3.4.4.5,0,1,.1,1.5.1a.56.56,0,0,1,.6.5v.1a.68354.68354,0,0,1-.7.7h0A7.71915,7.71915,0,0,0,18.5,4ZM16.4,8.3c-.2.1-.3.2-.5.3-1,.5-2,1-3,1.4a13.87532,13.87532,0,0,1-9,.3c-.3-.1-.5-.1-.5.2A9.60508,9.60508,0,0,0,6,19.6a9.42645,9.42645,0,0,0,15.2-3.7c.1-.3,0-.4-.2-.6a19.58292,19.58292,0,0,1-2.1-1.8A10.52723,10.52723,0,0,1,16.4,8.3Z" transform="translate(-0.8734 -0.59098)"/><path d="M12.5,19.5a6.72574,6.72574,0,0,1-6.3-4.3c-.2-.5-.1-.7.2-.9a.73053.73053,0,0,1,1,.4,7.07178,7.07178,0,0,0,1.2,1.8,5.50627,5.50627,0,0,0,7.2.7c.1-.1.3-.2.4-.3a.76927.76927,0,0,1,1,.1h0a.59016.59016,0,0,1-.2.9A7.48689,7.48689,0,0,1,12.5,19.5Z" transform="translate(-0.8734 -0.59098)"/><path d="M15.9,13.9a1,1,0,0,1-2,0h0a1,1,0,0,1,2,0Z" transform="translate(-0.8734 -0.59098)"/><path d="M10.8,12.2a.98655.98655,0,0,1-.9,1H9.8a1,1,0,1,1,1-1Z" transform="translate(-0.8734 -0.59098)"/></g></g></svg>