<?xml version="1.0" encoding="utf-8"?>
<!-- Generator: Adobe Illustrator 21.0.0, SVG Export Plug-In . SVG Version: 6.00 Build 0)  -->
<svg version="1.1" id="Layer_3" xmlns="http://www.w3.org/2000/svg" xmlns:xlink="http://www.w3.org/1999/xlink" x="0px" y="0px"
	 width="400px" height="400px" viewBox="0 0 400 400" style="enable-background:new 0 0 400 400;" xml:space="preserve">
<rect x="133.1761" y="300.20547" style="fill:#A4A9AD;" width="133.65112" height="9.93196"/>
<polygon style="opacity:0.1;enable-background:new    ;" points="133.17412,300.20679 133.17412,310.13873 147.19275,310.13873 
	152.42094,300.20679 "/>
<polygon style="opacity:0.1;enable-background:new    ;" points="266.82193,300.20679 266.82193,310.13873 252.8033,310.13873 
	247.57512,300.20679 "/>
<rect x="110.41867" y="328.40561" style="fill:#A4A9AD;" width="179.16599" height="9.93196"/>
<polygon style="opacity:0.1;enable-background:new    ;" points="112.70964,328.40295 110.41536,332.76044 110.41536,338.33493 
	132.34976,338.33493 137.57861,328.40295 "/>
<polygon style="opacity:0.1;enable-background:new    ;" points="287.2897,328.40295 289.58398,332.76044 289.58398,338.33493 
	267.6496,338.33493 262.42142,328.40295 "/>
<path style="fill:#333E48;" d="M95.35983,353.00046c-1.89105,0-2.71805-1.36929-1.83675-3.04184l48.37528-91.89847
	c0.88063-1.67322,2.97098-2.32208,4.64418-1.44147l13.38829,7.04837c1.6732,0.88065,2.3221,2.97034,1.44147,4.64487
	l-42.97892,81.64606c-0.88064,1.67319-3.14909,3.04315-5.04014,3.04315H95.35983V353.00046z"/>
<polygon style="opacity:0.1;enable-background:new    ;" points="143.49939,255.01701 122.31981,295.2514 147.18944,295.2514 
	162.97266,265.2688 "/>
<path style="fill:#333E48;" d="M304.6402,353.00046c1.89102,0,2.71805-1.36929,1.83673-3.04184l-48.37527-91.89847
	c-0.88062-1.67322-2.97031-2.32208-4.6442-1.44147l-13.38762,7.04837c-1.67387,0.88065-2.32275,2.97034-1.44145,4.64487
	l42.97824,81.64737c0.88129,1.67188,3.14911,3.04181,5.04013,3.04181h17.99344V353.00046z"/>
<polygon style="opacity:0.1;enable-background:new    ;" points="256.50061,255.01701 277.68021,295.2514 252.80991,295.2514 
	237.02736,265.2688 "/>
<path style="fill:#FF5959;" d="M287.31354,60.75378c0-7.56418-6.18958-13.75378-13.7551-13.75378H126.43694
	c-7.56485,0-13.75378,6.1896-13.75378,13.75378v208.36462c0,7.56485,6.1896,13.75446,13.75378,13.75446h147.12149
	c7.56552,0,13.75446-6.18961,13.75446-13.75446V60.75378H287.31354z"/>
<circle style="opacity:0.2;enable-background:new    ;" cx="146.70345" cy="242.87816" r="15.47333"/>
<circle style="opacity:0.2;enable-background:new    ;" cx="253.29326" cy="242.87816" r="15.47333"/>
<path style="fill:#FFFFFF;" d="M268.77057,121.66916c0-5.67313-4.64218-10.31534-10.31534-10.31534H141.54478
	c-5.67314,0-10.31534,4.6422-10.31534,10.31534v72.44572c0,5.6738,4.6422,10.31599,10.31534,10.31599h116.90977
	c5.67313,0,10.31534-4.6422,10.31534-10.31599v-72.44572H268.77057z"/>
<path style="fill:#A4A9AD;" d="M231.63431,204.43088c0-17.47163-14.16299-31.63463-31.63397-31.63463
	c-17.47163,0-31.63396,14.16365-31.63396,31.63463H231.63431z"/>
<path style="opacity:0.2;enable-background:new    ;" d="M258.45459,111.35316H141.54478
	c-5.67314,0-10.31534,4.6422-10.31534,10.31534v17.11078c0-5.67313,4.6422-10.31534,10.31534-10.31534h116.90977
	c5.67313,0,10.31534,4.6422,10.31534,10.31534V121.6685C268.77057,115.99536,264.12839,111.35316,258.45459,111.35316z"/>
<g>
	<path style="fill:#333E48;" d="M258.45459,209.39687H141.54478c-8.42628,0-15.28133-6.8557-15.28133-15.28198v-72.44572
		c0-8.42628,6.85504-15.28132,15.28133-15.28132h116.90977c8.4263,0,15.28134,6.85571,15.28134,15.28132v72.44572
		C273.73654,202.54117,266.88086,209.39687,258.45459,209.39687z M141.54478,116.31915c-2.9498,0-5.34935,2.39956-5.34935,5.34936
		v72.44572c0,2.9498,2.39955,5.35002,5.34935,5.35002h116.90977c2.9498,0,5.34937-2.40022,5.34937-5.35002v-72.44507
		c0-2.94979-2.39957-5.34936-5.34937-5.34936H141.54478V116.31915z"/>
	<path style="fill:#333E48;" d="M268.77057,77.94402c0-5.67313-4.64218-10.31534-10.31534-10.31534H141.54478
		c-5.67314,0-10.31534,4.6422-10.31534,10.31534v4.36079c0,5.67313,4.6422,10.31534,10.31534,10.31534h116.90977
		c5.67313,0,10.31534-4.6422,10.31534-10.31534v-4.36079H268.77057z"/>
</g>
<path style="opacity:0.2;enable-background:new    ;" d="M258.45459,67.62868H141.54478
	c-5.67314,0-10.31534,4.6422-10.31534,10.31534v4.36079c0,0.58598,0.06091,1.15675,0.15559,1.7169
	c0.82501-4.86269,5.07127-8.59909,10.15974-8.59909h116.90977c5.0878,0,9.33539,3.73707,10.15973,8.59909
	c0.0947-0.56017,0.15561-1.13092,0.15561-1.7169v-4.36079C268.77057,72.27089,264.12839,67.62868,258.45459,67.62868z"/>
<g>
	<circle style="fill:#FFB819;" cx="146.70345" cy="235.54176" r="15.47333"/>
	<circle style="fill:#FFB819;" cx="253.29326" cy="235.54176" r="15.47333"/>
</g>
<path style="fill:#D1D3D3;" d="M230.39214,282.87286v-17.53986c0-5.67313-4.64218-10.31532-10.31534-10.31532h-40.15625
	c-5.67314,0-10.31534,4.6422-10.31534,10.31532v17.53986H230.39214z"/>
<g style="opacity:0.4;">
	<rect x="169.60655" y="264.66888" style="fill:#A4A9AD;" width="60.79022" height="9.93196"/>
</g>
<path style="fill:#FFFFFF;" d="M226.82062,237.24144h-53.64583c-2.74255,0-4.96599-2.22276-4.96599-4.96597
	c0-2.74323,2.22343-4.96599,4.96599-4.96599h53.64583c2.74321,0,4.96599,2.22276,4.96599,4.96599
	C231.78661,235.01868,229.56381,237.24144,226.82062,237.24144z"/>
</svg>
