<svg id="Layer_1" data-name="Layer 1" xmlns="http://www.w3.org/2000/svg" viewBox="0 0 23.2 23"><title>reset</title><g id="Layer_2" data-name="Layer 2"><g id="Layer_1-2" data-name="Layer 1-2"><path d="M11.9,23.5A11.43819,11.43819,0,0,1,.4,12,11.43819,11.43819,0,0,1,11.9.5a11.698,11.698,0,0,1,9.3,4.7L18,7.6A7.49332,7.49332,0,0,0,7.5,6,7.41961,7.41961,0,0,0,5.9,16.5a7.41961,7.41961,0,0,0,10.5,1.6,7.71133,7.71133,0,0,0,3-5l4,.5A11.69753,11.69753,0,0,1,11.9,23.5Z" transform="translate(-0.4 -0.5)"/><polygon points="23.2 3.3 14.4 7.4 20.8 9.8 23.2 3.3"/></g></g></svg>