<?xml version="1.0" encoding="utf-8"?>
<!-- Generator: Adobe Illustrator 21.0.0, SVG Export Plug-In . SVG Version: 6.00 Build 0)  -->
<svg version="1.1" id="Layer_2_1_" xmlns="http://www.w3.org/2000/svg" xmlns:xlink="http://www.w3.org/1999/xlink" x="0px" y="0px"
	 viewBox="0 0 400 400" style="enable-background:new 0 0 400 400;" xml:space="preserve">
<style type="text/css">
	.st0{fill:#00B7A5;}
	.st1{fill:#0794A3;}
	.st2{fill:#88A1A8;}
	.st3{fill:#A5B8BF;}
	.st4{fill:#5A6E7A;}
	.st5{fill:#3B4D56;}
	.st6{fill:#3BABFF;}
	.st7{fill:#F4D314;}
	.st8{fill:#F29816;}
</style>
<g>
	<path class="st0" d="M349.6,203.3c0,1.9-1.5,3.4-3.4,3.4h-94.7c-1.9,0-3.4-1.5-3.4-3.4V169c0-1.9,1.5-3.4,3.4-3.4h94.7
		c1.9,0,3.4,1.5,3.4,3.4V203.3z"/>
	<path class="st1" d="M349.6,203.3V169c0-1.9-1.5-3.4-3.4-3.4h-20c-1.9,0-3.4,1.5-3.4,3.4v34.3c0,1.9,1.5,3.4,3.4,3.4h20
		C348.1,206.7,349.6,205.2,349.6,203.3L349.6,203.3z"/>
	<path class="st0" d="M318.7,162.8c0,1.9-1.5,3.4-3.4,3.4h-94.7c-1.9,0-3.4-1.5-3.4-3.4v-34.3c0-1.9,1.5-3.4,3.4-3.4h94.7
		c1.9,0,3.4,1.5,3.4,3.4V162.8z"/>
	<path class="st1" d="M318.7,162.8v-34.3c0-1.9-1.5-3.4-3.4-3.4h-20c-1.9,0-3.4,1.5-3.4,3.4v34.3c0,1.9,1.5,3.4,3.4,3.4h20
		C317.2,166.3,318.7,164.7,318.7,162.8L318.7,162.8z"/>
	<path class="st0" d="M289.7,203.3c0,1.9-1.5,3.4-3.4,3.4h-94.7c-1.9,0-3.4-1.5-3.4-3.4V169c0-1.9,1.5-3.4,3.4-3.4h94.7
		c1.9,0,3.4,1.5,3.4,3.4V203.3z"/>
	<path class="st1" d="M289.7,203.3V169c0-1.9-1.5-3.4-3.4-3.4h-20c-1.9,0-3.4,1.5-3.4,3.4v34.3c0,1.9,1.5,3.4,3.4,3.4h20
		C288.1,206.7,289.7,205.2,289.7,203.3L289.7,203.3z"/>
	<path class="st2" d="M147.4,176c0,9.8-7.9,17.7-17.7,17.7H99.4c-9.8,0-17.7-7.9-17.7-17.7v-37.3c0-9.8,7.9-10.8,17.7-10.8h30.4
		c9.7,0,17.7,1,17.7,10.8V176z"/>
	<path class="st3" d="M172.9,200.2c0,9.8-7.9,17.7-17.7,17.7H73.9c-9.7,0-17.7-7.9-17.7-17.7v-18.6c0-9.8,7.9-17.7,17.7-17.7h81.4
		c9.7,0,17.7,7.9,17.7,17.7L172.9,200.2L172.9,200.2z"/>
	<path class="st4" d="M47,209.3c0,0.3,0,0.6,0,1c0,43.9,68.5,79.5,153,79.5c84.5,0,153-35.6,153-79.5c0-0.3,0-0.6,0-1H47z"/>
	<path class="st5" d="M200,289.8c84.5,0,153-35.6,153-79.5c0-0.3,0-0.6,0-1H47c0,0.3,0,0.6,0,1"/>
	<path class="st6" d="M368.7,269.8c-9.1,0-17.5-3.2-24.1-8.5c-6.6,5.3-15,8.5-24.1,8.5c-9.1,0-17.5-3.2-24.1-8.5
		c-6.6,5.3-15,8.5-24.1,8.5c-9.1,0-17.5-3.2-24.1-8.5c-6.6,5.3-15,8.5-24.1,8.5c-9.1,0-17.5-3.2-24.1-8.5c-6.6,5.3-15,8.5-24.1,8.5
		s-17.5-3.2-24.1-8.5c-6.6,5.3-15,8.5-24.1,8.5s-17.5-3.2-24.1-8.5c-6.6,5.3-15,8.5-24.1,8.5c-9.1,0-17.5-3.2-24.1-8.5
		c-6.6,5.3-15,8.5-24.1,8.5c-7.2,0-13.9-2-19.7-5.4v29.2c5.8,3.4,12.5,5.4,19.7,5.4c9.1,0,17.5-3.2,24.1-8.5
		c6.6,5.3,15,8.5,24.1,8.5c9.1,0,17.5-3.2,24.1-8.5c6.6,5.3,15,8.5,24.1,8.5s17.5-3.2,24.1-8.5c6.6,5.3,15,8.5,24.1,8.5
		s17.5-3.2,24.1-8.5c6.6,5.3,15,8.5,24.1,8.5c9.1,0,17.5-3.2,24.1-8.5c6.6,5.3,15,8.5,24.1,8.5c9.1,0,17.5-3.2,24.1-8.5
		c6.6,5.3,15,8.5,24.1,8.5c9.1,0,17.5-3.2,24.1-8.5c6.6,5.3,15,8.5,24.1,8.5c7.2,0,13.9-2,19.7-5.4v-29.2
		C382.6,267.8,375.8,269.8,368.7,269.8L368.7,269.8z"/>
	<path class="st6" d="M344.6,319.8c-6.6,5.3-15,8.4-24.1,8.4c-9.1,0-17.5-3.2-24.1-8.4c-6.6,5.3-15,8.4-24.1,8.4
		c-9.1,0-17.5-3.2-24.1-8.4c-6.6,5.3-15,8.4-24.1,8.4c-9.1,0-17.5-3.2-24.1-8.4c-6.6,5.3-15,8.4-24.1,8.4s-17.5-3.2-24.1-8.4
		c-6.6,5.3-15,8.4-24.1,8.4s-17.5-3.2-24.1-8.4c-6.6,5.3-15,8.4-24.1,8.4c-9.1,0-17.5-3.2-24.1-8.4c-6.6,5.3-15,8.4-24.1,8.4
		c-7.2,0-13.9-2-19.7-5.4V352c5.8,3.4,12.5,5.4,19.7,5.4c9.1,0,17.5-3.2,24.1-8.4c6.6,5.3,15,8.4,24.1,8.4c9.1,0,17.5-3.2,24.1-8.4
		c6.6,5.3,15,8.4,24.1,8.4s17.5-3.2,24.1-8.4c6.6,5.3,15,8.4,24.1,8.4s17.5-3.2,24.1-8.4c6.6,5.3,15,8.4,24.1,8.4
		c9.1,0,17.5-3.2,24.1-8.4c6.6,5.3,15,8.4,24.1,8.4c9.1,0,17.5-3.2,24.1-8.4c6.6,5.3,15,8.4,24.1,8.4c9.1,0,17.5-3.2,24.1-8.4
		c6.6,5.3,15,8.4,24.1,8.4c7.2,0,13.9-2,19.7-5.4v-29.2c-5.8,3.4-12.5,5.4-19.7,5.4C359.5,328.2,351.2,325.1,344.6,319.8
		L344.6,319.8z"/>
	<path class="st7" d="M52.5,231.4c3.6,6.8,8.9,13.2,15.6,19.1H332c6.7-5.9,12-12.3,15.6-19.1H52.5z"/>
	<path class="st8" d="M87.6,231.4l36.8,19.1H332c1.6-1.5,3.2-2.9,4.7-4.4c0.1,0,0.1-0.1,0.1-0.1c3-3.1,5.6-6.2,7.8-9.5v0
		c1.1-1.6,2.1-3.3,3-5c0,0,0,0,0,0L87.6,231.4z"/>
	<path class="st5" d="M360.9,206.4c0,2.2-1.8,3.9-3.9,3.9H43.1c-2.2,0-3.9-1.8-3.9-3.9c0-2.2,1.8-3.9,3.9-3.9H357
		C359.1,202.5,360.9,204.2,360.9,206.4L360.9,206.4z"/>
	<path class="st2" d="M111.1,137.2c0,1.9,1.5,3.4,3.4,3.4c1.9,0,3.4-1.5,3.4-3.4V46c0-1.9-1.5-3.4-3.4-3.4c-1.9,0-3.4,1.5-3.4,3.4
		V137.2z"/>
	<path class="st5" d="M81.2,182.1c0,2.6-2.1,4.7-4.7,4.7c-2.6,0-4.7-2.1-4.7-4.7c0-2.6,2.1-4.7,4.7-4.7
		C79.1,177.4,81.2,179.5,81.2,182.1L81.2,182.1z"/>
	<path class="st5" d="M99.6,182.1c0,2.6-2.1,4.7-4.7,4.7c-2.6,0-4.7-2.1-4.7-4.7c0-2.6,2.1-4.7,4.7-4.7
		C97.5,177.4,99.6,179.5,99.6,182.1L99.6,182.1z"/>
	<path class="st5" d="M118,182.1c0,2.6-2.1,4.7-4.7,4.7c-2.6,0-4.7-2.1-4.7-4.7c0-2.6,2.1-4.7,4.7-4.7
		C115.9,177.4,118,179.5,118,182.1L118,182.1z"/>
	<path class="st5" d="M136.4,182.1c0,2.6-2.1,4.7-4.7,4.7c-2.6,0-4.7-2.1-4.7-4.7c0-2.6,2.1-4.7,4.7-4.7
		C134.3,177.4,136.4,179.5,136.4,182.1L136.4,182.1z"/>
	<path class="st5" d="M159.2,204.4c0,3.8-3.1,6.9-6.9,6.9c-3.8,0-6.9-3.1-6.9-6.9v-21.6c0-3.8,3.1-6.9,6.9-6.9
		c3.8,0,6.9,3.1,6.9,6.9V204.4z"/>
</g>
</svg>
