<svg id="Layer_1" data-name="Layer 1" xmlns="http://www.w3.org/2000/svg" viewBox="0 0 25 25"><title>social</title><g id="Layer_2" data-name="Layer 2"><g id="Layer_1-2" data-name="Layer 1-2"><path d="M12.5,25A12.5,12.5,0,1,1,25,12.5,12.5,12.5,0,0,1,12.5,25Zm0-24A11.5,11.5,0,1,0,24,12.5,11.5,11.5,0,0,0,12.5,1Z"/><path d="M12.5,25c-3.96973,0-7.0791-5.49072-7.0791-12.5S8.53027,0,12.5,0s7.0791,5.49072,7.0791,12.5S16.46973,25,12.5,25Zm0-24C9.148,1,6.4209,6.15869,6.4209,12.5S9.148,24,12.5,24s6.0791-5.15869,6.0791-11.5S15.852,1,12.5,1Z"/><rect x="0.49984" y="11.99978" width="24" height="1"/><rect x="11.99984" y="0.49978" width="1" height="24"/><path d="M12.5,16.55381a17.95779,17.95779,0,0,0-9.51422,2.3855q.29086.42764.61859.82672A17.26073,17.26073,0,0,1,12.5,17.55381,17.26073,17.26073,0,0,1,21.39563,19.766q.327-.39908.61859-.82672A17.95778,17.95778,0,0,0,12.5,16.55381Z"/><path d="M2.17346,19.52024c.195.28534.40283.561.62012.82874a8.44337,8.44337,0,0,1,.81079-.583q-.327-.39908-.61859-.82672A9.38946,9.38946,0,0,0,2.17346,19.52024Z"/><path d="M22.01422,18.93931q-.29086.42764-.61859.82672a8.44335,8.44335,0,0,1,.81079.583c.21729-.26776.42517-.5434.62012-.82874A9.38914,9.38914,0,0,0,22.01422,18.93931Z"/><path d="M12.5,9.349a17.95779,17.95779,0,0,0,9.51422-2.3855q-.29086-.42764-.61859-.82672A17.26073,17.26073,0,0,1,12.5,8.349,17.26073,17.26073,0,0,1,3.60437,6.13676q-.327.39908-.61859.82672A17.95778,17.95778,0,0,0,12.5,9.349Z"/><path d="M22.82654,6.38255c-.195-.28534-.40283-.561-.62012-.82874a8.44327,8.44327,0,0,1-.81079.583q.327.39908.61859.82672A9.38913,9.38913,0,0,0,22.82654,6.38255Z"/><path d="M2.98578,6.96348q.29086-.42764.61859-.82672a8.44323,8.44323,0,0,1-.81079-.583c-.21729.26776-.42517.5434-.62012.82874A9.38931,9.38931,0,0,0,2.98578,6.96348Z"/></g></g></svg>