<svg id="Layer_1" data-name="Layer 1" xmlns="http://www.w3.org/2000/svg" viewBox="0 0 23.41521 22.92894"><title>speed</title><g id="Layer_2" data-name="Layer 2"><g id="Layer_1-2" data-name="Layer 1-2"><path d="M13.2,10.2a.96177.96177,0,1,1-1.7-.9c0-.1.1-.1.1-.2.3-.5,4-4.2,4-4.2S13.5,9.7,13.2,10.2Z" transform="translate(-0.34867 -0.57106)"/><path d="M3.3,14.7A8.9436,8.9436,0,0,1,9.4,3.4,9.20654,9.20654,0,0,1,20.8,9.5a9.5256,9.5256,0,0,1,.3,4.1l2.2,1.7A11.47142,11.47142,0,0,0,15.3,1,11.82856,11.82856,0,0,0,.8,8.9a11.10176,11.10176,0,0,0,.4,7.4Z" transform="translate(-0.34867 -0.57106)"/><path d="M9.8,21a8.45091,8.45091,0,0,1-4.2-2.4l-2,1.5a12.26134,12.26134,0,0,0,6.2,3.4Z" transform="translate(-0.34867 -0.57106)"/><path d="M19.1,17.8a9.15059,9.15059,0,0,1-4.8,3.1v2.5a11.49389,11.49389,0,0,0,6.8-4.1Z" transform="translate(-0.34867 -0.57106)"/><text transform="translate(5.45163 16.40164)" style="isolation:isolate;font-size:11.013899803161621px;font-family:AnnualCondensedNormal, Annual Condensed">km</text></g></g></svg>