<svg id="Layer_1" data-name="Layer 1" xmlns="http://www.w3.org/2000/svg" viewBox="0 0 11.58889 23.08889"><title>temperature</title><g id="Layer_2" data-name="Layer 2"><g id="Layer_1-2" data-name="Layer 1-2"><path d="M12.9,8.3V3.4a.78874.78874,0,0,0-.8-.8h0a.78874.78874,0,0,0-.8.8h0V8.3Z" transform="translate(-6.21111 -0.5)"/><path d="M17.8,17.7a5.67593,5.67593,0,0,0-2.9-5V3.4a2.9,2.9,0,1,0-5.8,0v9.4a5.78014,5.78014,0,0,0,5.8,10A5.95825,5.95825,0,0,0,17.8,17.7Zm-10,0a4.00358,4.00358,0,0,1,2.6-3.8V3.4a1.6,1.6,0,0,1,3.2,0V13.9a4.24747,4.24747,0,0,1,2.3,5.4,4.24747,4.24747,0,0,1-5.4,2.3,4.18017,4.18017,0,0,1-2.7-3.9Z" transform="translate(-6.21111 -0.5)"/><path d="M14.9,17.7a2.91288,2.91288,0,0,0-2-2.8V8.3H11.2V15a2.87852,2.87852,0,1,0,3.7,2.7Z" transform="translate(-6.21111 -0.5)"/></g></g></svg>