<?xml version="1.0" encoding="utf-8"?>
<!-- Generator: Adobe Illustrator 21.0.0, SVG Export Plug-In . SVG Version: 6.00 Build 0)  -->
<svg version="1.1" id="Layer_2_1_" xmlns="http://www.w3.org/2000/svg" xmlns:xlink="http://www.w3.org/1999/xlink" x="0px" y="0px"
	 viewBox="0 0 400 400" style="enable-background:new 0 0 400 400;" xml:space="preserve">
<style type="text/css">
	.st0{fill:#E9EAEF;}
	.st1{fill:#D4D8E3;}
	.st2{fill:#FFC207;}
	.st3{fill:#4D5F73;}
	.st4{fill:#F44236;}
	.st5{fill:#F2B60F;}
	.st6{fill:#2C3D4F;}
	.st7{fill:#D61818;}
</style>
<g id="Layer_2_2_">
	<g>
		<path class="st0" d="M165.3,84.2c0.4,0,0.8,0,1.2,0c1.7-15,14.4-26.7,29.9-26.7c3.8,0,7.4,0.7,10.7,2
			c5.4-22.3,25.6-38.9,49.5-38.9c28.2,0,51,22.8,51,51c0,0.9,0,1.8-0.1,2.7c13.1,3,22.9,14.8,22.9,28.9c0,16.4-13.3,29.6-29.6,29.6
			c-10.6,0-19.9-5.6-25.1-13.9c-5.9,2.4-12.3,3.7-19.1,3.7c-14.5,0-27.7-6.1-36.9-15.9c-5.5,6.7-13.9,11-23.3,11
			c-3.3,0-6.5-0.5-9.4-1.5c-3.4,8.6-11.8,14.6-21.6,14.6c-12.9,0-23.3-10.4-23.3-23.3C142,94.6,152.4,84.2,165.3,84.2L165.3,84.2z"
			/>
		<path class="st1" d="M256.6,20.6c28.2,0,51,22.8,51,51c0,0.9,0,1.8-0.1,2.7c13.1,3,22.9,14.8,22.9,28.9
			c0,16.4-13.3,29.6-29.6,29.6c-10.6,0-19.9-5.6-25.1-13.9c-5.9,2.4-12.3,3.7-19.1,3.7V20.6L256.6,20.6z"/>
		<g>
			<path class="st2" d="M173.4,222.5h-70.9l-32.9,157h103.8h103.8l-32.9-157H173.4L173.4,222.5z M243.2,147.1h-69.7h-69.7
				c1,8,1.9,16,2.9,23.9c0.7,7.7,0.3,17.1-0.7,27.5h67.6H241c-1.1-10.4-1.4-19.7-0.7-27.5C241.2,163.1,242.2,155.1,243.2,147.1
				L243.2,147.1z"/>
			<polygon class="st3" points="80.5,327.6 69.6,379.4 173.4,379.4 277.3,379.4 266.4,327.6 			"/>
			<polygon class="st4" points="105.9,198.5 173.4,198.5 173.4,222.5 102.5,222.5 			"/>
			<path class="st5" d="M173.4,222.5h70.9l32.9,157H173.4V222.5L173.4,222.5z M243.2,147.1h-69.7v23.9v27.5H241
				c-1.1-10.4-1.4-19.7-0.7-27.5C241.2,163.1,242.2,155.1,243.2,147.1L243.2,147.1z"/>
			<polygon class="st6" points="266.4,327.6 277.3,379.4 173.4,379.4 173.4,327.6 			"/>
			<polygon class="st7" points="241,198.5 173.4,198.5 173.4,222.5 244.4,222.5 			"/>
		</g>
	</g>
</g>
</svg>
