<svg id="Layer_1" data-name="Layer 1" xmlns="http://www.w3.org/2000/svg" viewBox="0 0 23 23"><title>time</title><g id="Layer_2" data-name="Layer 2"><g id="Layer_1-2" data-name="Layer 1-2"><path d="M12,23.5A11.43819,11.43819,0,0,1,.5,12,11.43819,11.43819,0,0,1,12,.5,11.43819,11.43819,0,0,1,23.5,12,11.56629,11.56629,0,0,1,12,23.5Zm0-21A9.56045,9.56045,0,0,0,2.5,12,9.56045,9.56045,0,0,0,12,21.5,9.56045,9.56045,0,0,0,21.5,12,9.56045,9.56045,0,0,0,12,2.5Z" transform="translate(-0.5 -0.5)"/><path d="M10.1,4.8v8.5a1.00209,1.00209,0,0,0,1,1,1.0714,1.0714,0,0,0,1-1V4.8a1.00209,1.00209,0,0,0-1-1A1.0714,1.0714,0,0,0,10.1,4.8Z" transform="translate(-0.5 -0.5)"/><path d="M10.6,14.2l5.5,3.7c1.1.7,2.1-1,1-1.7l-5.5-3.7C10.6,11.7,9.6,13.5,10.6,14.2Z" transform="translate(-0.5 -0.5)"/></g></g></svg>