<?xml version="1.0" encoding="utf-8"?>
<!-- Generator: Adobe Illustrator 21.0.0, SVG Export Plug-In . SVG Version: 6.00 Build 0)  -->
<svg version="1.1" id="Layer_3" xmlns="http://www.w3.org/2000/svg" xmlns:xlink="http://www.w3.org/1999/xlink" x="0px" y="0px"
	 width="400px" height="400px" viewBox="0 0 400 400" style="enable-background:new 0 0 400 400;" xml:space="preserve">
<g>
	<circle style="fill:#F9D026;" cx="200" cy="200.00046" r="145.81706"/>
	<path style="fill:#E7C224;" d="M294.33411,311.18924c-27.4328,23.27383-60.97272,34.63437-94.33411,34.61792V54.19313
		c41.31859,0.02011,82.36298,17.49817,111.18878,51.4732C363.28784,167.07416,355.74194,259.09021,294.33411,311.18924z"/>
	<path style="fill:#444242;" d="M212.74931,44.53456c41.52577,3.40518,79.24055,22.77779,106.19618,54.54993
		c26.95505,31.77094,39.92496,72.1389,36.52039,113.66467c-3.40518,41.52701-22.77838,79.24117-54.55054,106.19679
		c-31.77216,26.95505-72.13707,39.92557-113.66528,36.5192c-41.52579-3.40521-79.24055-22.7778-106.1962-54.54996l0,0
		c-26.95503-31.77032-39.92495-72.13705-36.51976-113.66406c3.40518-41.52577,22.77839-79.24114,54.55053-106.19618
		c28.44375-24.13243,63.77097-37.05542,100.65821-37.0542C204.05782,44.00075,208.40022,44.17868,212.74931,44.53456z
		 M287.75226,303.4313c27.6272-23.44019,44.47272-56.23546,47.4343-92.34511c2.96155-36.10966-8.31613-71.21143-31.75632-98.83923
		C276.63608,80.66555,238.39055,64.41538,199.897,64.41904c-31.01712,0.00244-62.2,10.55923-87.64989,32.15057
		c-27.62718,23.44018-44.47272,56.23545-47.43427,92.34512s8.31551,71.21144,31.7563,98.83922
		c26.79538,31.58264,65.03969,47.82855,103.53323,47.82855C231.1201,335.58249,262.30298,325.02325,287.75226,303.4313z"/>
	<path style="fill:#3A3839;" d="M355.46588,212.75038c-3.40518,41.52701-22.77838,79.24117-54.55054,106.19682
		c-28.50833,24.18665-63.93733,37.10413-100.91597,37.04382v-20.40976c0.03473,0,0.06825,0.00122,0.10239,0.00122
		c31.01712,0,62.2-10.55923,87.64989-32.15057c27.6272-23.44016,44.47272-56.23544,47.43427-92.34512
		c2.96097-36.10966-8.3161-71.21143-31.75629-98.83923c-26.77161-31.55338-64.97206-47.80172-103.43085-47.82731V44.00379
		c4.23027,0.00671,8.48674,0.18159,12.74992,0.53077c41.52577,3.40518,79.24052,22.77779,106.19618,54.54993
		C345.90176,130.85663,358.87106,171.22339,355.46588,212.75038z"/>
	<g>
		<circle style="fill:#444242;" cx="200" cy="200.00046" r="19.16664"/>
		<path style="fill:#444242;" d="M216.36533,228.34549l39.49048,68.39978c-16.43115,9.50745-35.507,14.95038-55.85521,14.95038
			s-39.42406-5.44415-55.85521-14.95038l39.48621-68.39247C193.629,234.12416,206.16075,234.25215,216.36533,228.34549z"/>
		<path style="fill:#444242;" d="M167.26991,200.00107H88.28958c-0.01767-18.98322,4.80491-38.22542,14.97963-55.8479
			s24.42675-31.42053,40.87558-40.89691l39.48621,68.39186C173.633,177.42133,167.25713,188.21028,167.26991,200.00107z"/>
		<path style="fill:#444242;" d="M216.36533,171.65543l39.49049-68.39917c16.44884,9.47638,30.70146,23.27442,40.8756,40.89691
			c10.1741,17.62248,14.99728,36.86469,14.97961,55.8479h-78.97241C232.73799,188.45648,226.5827,177.53955,216.36533,171.65543z"/>
	</g>
	<g>
		<path style="fill:#3A3839;" d="M216.36533,171.65543l39.49049-68.39917c16.44884,9.47638,30.70146,23.27442,40.8756,40.89691
			c10.1741,17.62248,14.99728,36.86469,14.97961,55.8479h-78.97241C232.73799,188.45648,226.5827,177.53955,216.36533,171.65543z"/>
		<path style="fill:#3A3839;" d="M212.39891,214.61446c-3.60565,3.05905-8.01387,4.54897-12.39832,4.54654v-38.32169
			c5.43073,0.00243,10.82492,2.29672,14.614,6.7616C221.46153,195.67329,220.46947,207.76692,212.39891,214.61446z"/>
		<path style="fill:#3A3839;" d="M255.85582,296.74524c-16.43115,9.50745-35.507,14.95038-55.85521,14.95038l0,0v-78.96935
			c5.63184,0.00124,11.28682-1.44116,16.36475-4.38078L255.85582,296.74524z"/>
	</g>
</g>
</svg>
