<?xml version="1.0" encoding="utf-8"?>
<!-- Generator: Adobe Illustrator 21.0.2, SVG Export Plug-In . SVG Version: 6.00 Build 0)  -->
<svg version="1.1" id="Layer_1" xmlns="http://www.w3.org/2000/svg" xmlns:xlink="http://www.w3.org/1999/xlink" x="0px" y="0px"
	 viewBox="0 0 330.5 197.3" style="enable-background:new 0 0 330.5 197.3;" xml:space="preserve">
<title>hands</title>
<g id="Layer_2">
	<g id="_1">
		<path d="M303.9,6.4c0,0-42.6,24.2-61.8,9.2S183.8,5,166.8,10s-56.2,28.4-62.6,37s3.6,25.6,28.4,15.6s48.4-12.9,51.9-7.9
			s53.3,71.1,54.7,80.3s52.6-39.8,66.1-46.2s22-12.8,24.9-14.2S311.8,14.2,303.9,6.4z"/>
		<path d="M45.9,105.2c-13.6,1.7-10.7,19.2-5,25.6c5.5,5.8,14.7,6.1,20.5,0.6c1.7-1.6,2.9-3.5,3.7-5.6
			C70.1,113.7,57.3,103.8,45.9,105.2z"/>
		<path d="M91.4,127.9c-10.7-5.7-24.2,0.7-29.8,9.2s0,31.3,17.8,28.4S114.2,140,91.4,127.9z"/>
		<path d="M124.8,150c-13.6-9.1-29.8,8.5-33.4,18.5s7.8,20.6,27.7,8.5S133.4,155.6,124.8,150z"/>
		<path d="M137.6,171.3c-5.7,0.4-23.4,10.7-27,16.4s10.7,14.9,25.6,5.7S149,170.6,137.6,171.3z"/>
		<path d="M134.8,16.4c0,0-37,18.5-39.1,36.3s22,24.2,39.1,17.1s33.4-10.7,43.4-7.8s49.8,64.7,55.4,78.9s-6.4,24.2-14.2,19.9
			s-27-34.1-27-34.1s15,24.5,18.2,37.6c3.2,12.8-11.1,31.4-42.4-18.4c0,0,16.1,26.9,16.4,35.5c0.2,6.6-12.8,17.1-22.7,4.3
			c-3,4-7.8,6.4-12.8,6.4c0,0,12.1-22-7.1-28.4c0,0-0.7-22.7-27.7-24.2c0,0-9.2-24.2-34.8-21.3c-7.1-13.8-21.5-22.3-37-22
			C40.2,96,4.7,73.9,0.4,71.1S23.9,12.1,38.8,0C38.8,0,83.6,22.7,134.8,16.4z"/>
	</g>
</g>
</svg>
